<svg width="20" height="20" viewBox="0 0 20 20" fill="none" xmlns="http://www.w3.org/2000/svg">
<circle cx="10" cy="10" r="10" fill="#005B96"/>
<g clip-path="url(#clip0_58_29)">
<path d="M15.5763 10.4714C15.7013 10.3463 15.7715 10.1768 15.7715 10C15.7715 9.82325 15.7013 9.65371 15.5763 9.52869L11.805 5.75736C11.7435 5.69368 11.6699 5.6429 11.5886 5.60796C11.5072 5.57302 11.4197 5.55463 11.3312 5.55386C11.2427 5.55309 11.1549 5.56996 11.073 5.60348C10.9911 5.637 10.9166 5.6865 10.854 5.7491C10.7914 5.81169 10.7419 5.88612 10.7084 5.96806C10.6749 6.04999 10.658 6.13777 10.6588 6.22629C10.6596 6.31481 10.678 6.40229 10.7129 6.48363C10.7478 6.56496 10.7986 6.63853 10.8623 6.70003L13.4956 9.33336L4.66696 9.33336C4.49015 9.33336 4.32058 9.4036 4.19556 9.52862C4.07053 9.65364 4.00029 9.82321 4.00029 10C4.00029 10.1768 4.07053 10.3464 4.19556 10.4714C4.32058 10.5965 4.49015 10.6667 4.66696 10.6667L13.4956 10.6667L10.8623 13.3C10.7409 13.4258 10.6737 13.5942 10.6752 13.769C10.6767 13.9438 10.7468 14.111 10.8704 14.2346C10.994 14.3582 11.1612 14.4283 11.336 14.4298C11.5108 14.4313 11.6792 14.3641 11.805 14.2427L15.5763 10.4714Z" fill="white"/>
</g>
<defs>
<clipPath id="clip0_58_29">
<rect width="16" height="16" fill="white" transform="translate(18 2) rotate(90)"/>
</clipPath>
</defs>
</svg>
