<svg width="20" height="20" viewBox="0 0 20 20" fill="none" xmlns="http://www.w3.org/2000/svg">
<path d="M9.94314 7.48335L8.5648 8.72001C8.747 9.34365 9.00151 9.94383 9.32314 10.5083C9.65862 11.0687 10.0629 11.585 10.5265 12.045L12.3115 11.495C13.3115 11.1867 14.4031 11.5033 15.0681 12.295L16.0848 13.505C16.4964 13.9908 16.7028 14.6177 16.6602 15.2529C16.6175 15.8882 16.3293 16.4819 15.8565 16.9083C14.1981 18.4217 11.6448 18.9333 9.73314 17.4317C8.05225 16.1096 6.63053 14.4878 5.5398 12.6483C4.4463 10.8179 3.71417 8.79468 3.38314 6.68835C3.01647 4.31835 4.75147 2.42168 6.9148 1.77501C8.2048 1.38835 9.58147 2.05168 10.0548 3.28835L10.6131 4.74668C10.9798 5.70668 10.7165 6.79001 9.94314 7.48335Z" fill="#1A1A1A"/>
</svg>
