<svg width="20" height="20" viewBox="0 0 20 20" fill="none" xmlns="http://www.w3.org/2000/svg">
<path d="M10.0013 1.66675C5.39714 1.66675 1.66797 5.39591 1.66797 10.0001C1.66646 11.7495 2.2161 13.4549 3.23885 14.8742C4.2616 16.2936 5.70547 17.3546 7.36547 17.9067C7.78214 17.9792 7.93881 17.7292 7.93881 17.5101C7.93881 17.3126 7.92797 16.6567 7.92797 15.9584C5.83464 16.3442 5.29297 15.4484 5.12631 14.9792C5.03214 14.7392 4.62631 14.0001 4.27214 13.8017C3.98047 13.6459 3.56381 13.2601 4.26131 13.2501C4.91797 13.2392 5.38631 13.8542 5.54297 14.1042C6.29297 15.3642 7.49047 15.0101 7.96964 14.7917C8.04297 14.2501 8.2613 13.8859 8.50131 13.6776C6.64714 13.4692 4.70964 12.7501 4.70964 9.56258C4.70964 8.65592 5.03214 7.90675 5.56381 7.32342C5.48047 7.11508 5.18881 6.26091 5.64714 5.11508C5.64714 5.11508 6.34464 4.89592 7.93881 5.96842C8.61727 5.78062 9.31816 5.68614 10.0221 5.68758C10.7305 5.68758 11.4388 5.78092 12.1055 5.96842C13.6996 4.88508 14.3971 5.11508 14.3971 5.11508C14.8555 6.26091 14.5638 7.11508 14.4805 7.32342C15.0113 7.90675 15.3346 8.64592 15.3346 9.56258C15.3346 12.7609 13.3871 13.4692 11.533 13.6776C11.8346 13.9376 12.0955 14.4376 12.0955 15.2192C12.0955 16.3334 12.0846 17.2292 12.0846 17.5109C12.0846 17.7292 12.2413 17.9892 12.658 17.9059C14.3117 17.3468 15.7487 16.2835 16.7668 14.8654C17.7849 13.4473 18.3329 11.7458 18.3338 10.0001C18.3338 5.39591 14.6046 1.66675 10.0005 1.66675" fill="black"/>
</svg>
