<svg width="20" height="20" viewBox="0 0 20 20" fill="none" xmlns="http://www.w3.org/2000/svg">
<path d="M3.33268 16.6667C2.87435 16.6667 2.48213 16.5037 2.15602 16.1775C1.8299 15.8514 1.66657 15.4589 1.66602 15V5.00004C1.66602 4.54171 1.82935 4.14948 2.15602 3.82337C2.48268 3.49726 2.8749 3.33393 3.33268 3.33337H16.666C17.1243 3.33337 17.5168 3.49671 17.8435 3.82337C18.1702 4.15004 18.3332 4.54226 18.3327 5.00004V15C18.3327 15.4584 18.1696 15.8509 17.8435 16.1775C17.5174 16.5042 17.1249 16.6673 16.666 16.6667H3.33268ZM9.99935 10.8334L16.666 6.66671V5.00004L9.99935 9.16671L3.33268 5.00004V6.66671L9.99935 10.8334Z" fill="#1A1A1A"/>
</svg>
