<svg width="40" height="40" viewBox="0 0 40 40" fill="none" xmlns="http://www.w3.org/2000/svg">
<path d="M23.0802 14.754C22.9602 14.5683 22.823 14.3797 22.6802 14.1825C22.114 13.3831 21.4411 12.6649 20.6802 12.048C20.6656 12.0348 20.6504 12.0223 20.6344 12.0108L20.5916 12.0023C20.5202 11.9537 20.483 11.9337 20.483 11.9337C20.4027 11.8866 20.3161 11.851 20.2259 11.828C20.1517 11.8115 20.0761 11.8029 20.0002 11.8022C19.9395 11.8024 19.879 11.8101 19.8202 11.8251C19.6723 11.8667 19.5343 11.9376 19.4144 12.0337C19.3687 12.0651 19.3145 12.108 19.2573 12.1566C18.3765 12.91 17.6069 13.7845 16.9716 14.754C15.9966 16.2262 15.4742 17.9517 15.4688 19.7175C15.4684 20.9098 15.7515 22.0851 16.2945 23.1465L16.383 23.3151C16.4202 23.3865 16.463 23.4551 16.503 23.5265C17.0943 24.4496 17.8139 25.2837 18.6402 26.004C19.1716 26.4526 19.6602 26.8326 20.1002 27.147C20.3859 26.9384 20.6716 26.7269 20.9259 26.5097C21.0659 26.3954 21.2116 26.2783 21.3316 26.1611L21.3573 26.1383C21.483 26.0268 21.603 25.9154 21.7202 25.8039L21.7773 25.7468C21.8802 25.6439 21.9859 25.5411 22.083 25.4382C22.1173 25.4039 22.1487 25.3668 22.1802 25.3325L22.4259 25.0667L22.5773 24.8838C22.6316 24.8181 22.6916 24.7524 22.743 24.6867C22.8459 24.5581 22.9459 24.4266 23.0287 24.298C24.0188 22.9751 24.5595 21.3699 24.5716 19.7175C24.5696 17.9529 24.0511 16.2274 23.0802 14.754Z" fill="#4E61FF"/>
<path d="M20.4509 32.7591L20.0366 32.5076C17.3824 33.7964 14.5481 36.0681 13.0195 38.7427C17.5573 40.4308 22.5528 40.4187 27.0823 38.7084C25.4281 36.0823 23.0966 34.305 20.4509 32.7591Z" fill="#4E61FF"/>
<path d="M39.9999 20.0032C40 16.5542 39.1084 13.1638 37.4117 10.1611C35.715 7.15846 33.2708 4.64558 30.3164 2.8665C27.3621 1.08741 23.9979 0.102564 20.5507 0.00758698C17.1034 -0.0873899 13.6902 0.710729 10.6424 2.32445C7.59454 3.93817 5.01572 6.31265 3.15629 9.21735C1.29687 12.122 0.220012 15.4582 0.0302923 18.902C-0.159427 22.3458 0.544434 25.7801 2.07353 28.8715C3.60263 31.963 5.90501 34.6064 8.75711 36.5453C8.90283 36.3167 9.15711 35.9366 9.36854 35.6251C9.57997 35.3137 12.1028 31.7933 15.9599 29.7187C15.9599 29.7187 15.8685 29.6473 15.8228 29.6073L15.7428 29.5358C13.6857 27.747 12.2628 25.7839 11.4942 23.6523C11.4942 23.6294 11.4771 23.6094 11.4657 23.5837C11.0683 22.5075 10.8436 21.3753 10.8 20.229C10.7804 19.7461 10.787 19.2624 10.82 18.7802C10.82 18.7631 10.82 18.7459 10.82 18.7317C10.82 18.6088 10.82 18.5316 10.82 18.5316C10.8696 17.8578 10.9728 17.1889 11.1285 16.5314C11.8514 13.531 13.5857 11.2565 15.2771 9.65055H15.2628C16.4101 8.54858 17.7031 7.60923 19.1056 6.85878H19.1314C19.3972 6.72522 19.691 6.65666 19.9885 6.65876C20.1954 6.65686 20.4011 6.6897 20.5971 6.75591C20.5971 6.75591 20.9571 6.81306 22.2256 7.69031C22.4656 7.85033 22.7313 8.03893 23.0228 8.26181C25.4028 10.0706 29.2227 13.8911 29.2227 19.7346C29.2227 19.9747 29.2227 20.2118 29.2027 20.449C29.2027 20.5433 29.1856 20.6347 29.177 20.7348C29.177 20.8748 29.157 21.0205 29.1399 21.1548C29.1227 21.2891 29.1056 21.3977 29.0856 21.5177C29.0656 21.6377 29.057 21.7377 29.037 21.8435C29.017 21.9492 28.9799 22.1292 28.9485 22.2549C28.9313 22.3435 28.9142 22.4321 28.8913 22.5207C28.8542 22.6721 28.8113 22.8064 28.7685 22.9665C28.7485 23.0408 28.7313 23.1151 28.7085 23.1865C28.657 23.3465 28.6028 23.5037 28.5456 23.6608C28.5256 23.7208 28.5056 23.7808 28.4828 23.838C28.4199 24.0066 28.3513 24.1723 28.2799 24.3381L28.2199 24.4781C28.1428 24.6524 28.057 24.8267 27.9713 24.9981C27.9513 25.0353 27.9342 25.0724 27.917 25.1096C27.8228 25.2867 27.7228 25.4639 27.6313 25.6411C27.6142 25.6697 27.5999 25.6982 27.5828 25.7239C27.4742 25.9097 27.3599 26.0897 27.2399 26.2697L27.1999 26.3297C27.077 26.5155 26.9456 26.7012 26.8085 26.8841C26.8006 26.8985 26.791 26.912 26.7799 26.9241C26.6399 27.1127 26.4942 27.2984 26.3399 27.4956L26.3199 27.5184C26.1628 27.707 25.9999 27.8928 25.8313 28.0899C25.6599 28.2785 25.4828 28.4643 25.2971 28.6614C24.9161 29.031 24.519 29.393 24.1056 29.7473L24.3742 29.8987C28.0885 32.0247 30.497 35.4166 30.7142 35.7337C30.9313 36.0509 31.1342 36.3681 31.2685 36.591C33.9697 34.7516 36.1784 32.2773 37.7007 29.3852C39.2231 26.4931 40.0125 23.2716 39.9999 20.0032Z" fill="#4E61FF"/>
<path d="M20.0281 32.5133L19.8167 32.3819C19.3339 32.0961 18.9767 31.8733 18.5882 31.6218C17.6775 31.03 16.7991 30.3899 15.9567 29.7044C12.0996 31.7932 9.58247 35.308 9.36533 35.6251C9.14819 35.9423 8.89962 36.3167 8.75391 36.5453C9.40471 36.9902 10.0822 37.3948 10.7825 37.7568C11.5032 38.133 12.2465 38.4642 13.0082 38.7484C14.5396 36.0738 17.3739 33.8021 20.0281 32.5133Z" fill="white"/>
<path d="M20.0281 32.5133L19.8167 32.3819C19.3339 32.0961 18.9767 31.8733 18.5882 31.6218C17.6775 31.03 16.7991 30.3899 15.9567 29.7044C12.0996 31.7932 9.58247 35.308 9.36533 35.6251C9.14819 35.9423 8.89962 36.3167 8.75391 36.5453C9.38683 36.9745 10.0441 37.3666 10.7225 37.7197C11.4623 38.1079 12.2257 38.4496 13.0082 38.7427C14.5396 36.0738 17.3739 33.8021 20.0281 32.5133Z" fill="url(#paint0_linear_98_801)"/>
<path d="M30.6899 35.6994C30.4727 35.3823 28.0727 31.9847 24.3499 29.8644L24.0813 29.713C24.5042 29.3587 24.9013 28.9967 25.2727 28.6272C25.4585 28.4443 25.6356 28.2585 25.807 28.0557C25.9756 27.8699 26.1385 27.6842 26.2956 27.4842L26.3156 27.4613C26.467 27.2756 26.6156 27.0898 26.7556 26.8898C26.7667 26.8777 26.7763 26.8642 26.7842 26.8498C26.9213 26.6669 27.0527 26.4812 27.1756 26.2954L27.2156 26.2354C27.3356 26.0554 27.4499 25.8754 27.5584 25.6896C27.5756 25.6639 27.5899 25.6354 27.607 25.6068C27.707 25.4296 27.807 25.2525 27.8927 25.0753C27.9099 25.0381 27.927 25.001 27.947 24.9638C28.0327 24.7924 28.1184 24.6181 28.1956 24.4438L28.2556 24.3038C28.327 24.138 28.3956 23.9723 28.4584 23.8037C28.4813 23.7466 28.5013 23.6866 28.5213 23.6265C28.5784 23.4694 28.6327 23.3122 28.6842 23.1522C28.707 23.0808 28.7242 23.0065 28.7442 22.9322C28.787 22.7836 28.8299 22.6464 28.867 22.4864C28.8899 22.3978 28.907 22.3092 28.9242 22.2207C28.9556 22.0835 28.987 21.9349 29.0127 21.8092C29.0384 21.6834 29.0442 21.592 29.0613 21.4834C29.0784 21.3748 29.1013 21.2434 29.1156 21.1205C29.1299 20.9977 29.1413 20.8348 29.1527 20.7005C29.1527 20.6062 29.1727 20.5147 29.1784 20.4147C29.1784 20.1776 29.1984 19.9404 29.1984 19.7003C29.1984 13.8568 25.3785 10.0363 22.9985 8.22752C22.7128 8.00464 22.427 7.81604 22.2013 7.65602C20.9328 6.77877 20.5728 6.72162 20.5728 6.72162C20.3881 6.6623 20.1953 6.63241 20.0013 6.63304C19.7038 6.63095 19.4101 6.6995 19.1442 6.83307H19.1185C17.7185 7.59697 16.4303 8.54982 15.2899 9.66484H15.3042C13.6014 11.2793 11.8671 13.5539 11.1442 16.5543C10.9885 17.2118 10.8853 17.8806 10.8357 18.5545C10.8357 18.5545 10.8357 18.6316 10.8357 18.7545C10.8357 18.7545 10.8357 18.786 10.8357 18.8031C10.8027 19.2853 10.7961 19.7689 10.8157 20.2518C10.8593 21.3982 11.084 22.5304 11.4814 23.6065C11.4814 23.6323 11.4985 23.6523 11.5099 23.6751C12.2785 25.8068 13.7014 27.7699 15.7613 29.5387L15.8413 29.6101C15.8871 29.6501 15.9785 29.7216 15.9785 29.7216C16.8209 30.4071 17.6993 31.0471 18.6099 31.6389C18.9985 31.8904 19.3556 32.1076 19.8385 32.399L20.0499 32.5305L20.4642 32.7819C23.1099 34.3278 25.4527 36.1052 27.087 38.737C28.5575 38.1817 29.9569 37.4536 31.2556 36.5681C31.1099 36.3338 30.9242 36.0423 30.6899 35.6994ZM22.7499 24.6867C22.6985 24.7524 22.6385 24.8181 22.5842 24.8838L22.4328 25.0667L22.187 25.3325C22.1556 25.3668 22.1242 25.4039 22.0899 25.4382C21.9928 25.5411 21.887 25.6439 21.7842 25.7468L21.727 25.8039C21.6099 25.9154 21.4899 26.0268 21.3642 26.1383L21.3385 26.1611C21.207 26.2783 21.0728 26.3954 20.9328 26.5097C20.6699 26.7269 20.3928 26.9384 20.107 27.147C19.6671 26.8212 19.1785 26.4412 18.6471 26.004C17.8199 25.2802 17.1003 24.4422 16.5099 23.5151C16.4699 23.4437 16.4271 23.3751 16.3899 23.3036L16.2871 23.1293C15.7441 22.0679 15.461 20.8926 15.4614 19.7003C15.467 17.9368 15.9884 16.2134 16.9613 14.7426C17.5967 13.7731 18.3662 12.8986 19.2471 12.1451C19.3042 12.0966 19.3585 12.0537 19.4042 12.0223C19.524 11.9262 19.662 11.8552 19.8099 11.8137C19.8729 11.8015 19.9373 11.7977 20.0013 11.8022C20.0772 11.8019 20.1528 11.8096 20.227 11.8251C20.3173 11.8482 20.4038 11.8838 20.4842 11.9308C20.4842 11.9308 20.5213 11.9508 20.5928 11.9994L20.6328 12.0223C20.6487 12.0338 20.6639 12.0462 20.6785 12.0594C21.4394 12.6763 22.1123 13.3945 22.6785 14.194C22.8213 14.3826 22.9642 14.5712 23.0785 14.7655C24.0483 16.2353 24.5677 17.9565 24.5727 19.7175C24.5605 21.3664 24.022 22.9682 23.0356 24.2895C22.9528 24.4266 22.8585 24.5581 22.7499 24.6867Z" fill="white"/>
<path opacity="0.7" d="M24.0197 29.6816L24.0797 29.713C24.2683 29.553 24.4826 29.3701 24.7083 29.1644C24.994 28.8786 25.2283 28.6729 25.2797 28.6129C25.4654 28.43 25.6426 28.2442 25.814 28.0414C25.9826 27.8556 26.1454 27.6699 26.3026 27.4699L26.3226 27.447C26.474 27.2613 26.6226 27.0755 26.7626 26.8755C26.7737 26.8634 26.7833 26.8499 26.7912 26.8355C26.9283 26.6526 27.0597 26.4669 27.1826 26.2812L27.2226 26.2211C27.3426 26.0411 27.4569 25.8611 27.5654 25.6782L27.614 25.5925C27.714 25.4153 27.814 25.2382 27.8997 25.061C27.9169 25.0239 27.934 24.9867 27.954 24.9496C28.0397 24.7781 28.1254 24.6038 28.2026 24.4295L28.2626 24.2895C28.334 24.1237 28.4026 23.958 28.4654 23.7894C28.4883 23.7323 28.5083 23.6723 28.5283 23.6123C28.5854 23.4551 28.6397 23.2979 28.6911 23.1379C28.714 23.0665 28.7311 22.9922 28.7511 22.9179C28.794 22.7693 28.8369 22.6321 28.874 22.4721C28.8969 22.3835 28.914 22.2949 28.9311 22.2064C28.9626 22.0692 28.994 21.9206 29.0197 21.7949C29.0454 21.6692 29.0511 21.5777 29.0683 21.4691C29.0854 21.3605 29.1083 21.2291 29.1226 21.1062C29.1369 20.9834 29.1483 20.8205 29.1597 20.6862C29.1597 20.5919 29.1797 20.5004 29.1854 20.4004C29.1854 20.1633 29.2054 19.9261 29.2054 19.6861C29.2054 12.5023 23.4312 8.37611 21.6597 7.28169L20.6312 12.0194C21.5674 12.8148 22.3911 13.7338 23.0797 14.7512C24.0512 16.2254 24.5697 17.9519 24.5712 19.7175C24.5589 21.3664 24.0204 22.9682 23.034 24.2895C22.9426 24.4181 22.8426 24.5495 22.7483 24.6781C22.6969 24.7438 22.6369 24.8095 22.5826 24.8753L22.4312 25.0581L22.1855 25.3239C22.154 25.3582 22.1226 25.3953 22.0883 25.4296C21.9912 25.5325 21.8855 25.6354 21.7826 25.7382L21.7255 25.7954C21.6083 25.9068 21.4883 26.0183 21.3626 26.1297L21.3369 26.1526C21.2055 26.2697 21.0712 26.3869 20.9312 26.5012C20.6683 26.7183 20.3912 26.9298 20.1055 27.1384C20.4283 27.3727 21.1855 27.8956 22.0083 28.4128C23.1426 29.1472 23.314 29.2815 24.0197 29.6816Z" fill="url(#paint1_linear_98_801)"/>
<defs>
<linearGradient id="paint0_linear_98_801" x1="18.9767" y1="28.0042" x2="11.4355" y2="38.6932" gradientUnits="userSpaceOnUse">
<stop stop-color="#3750E2" stop-opacity="0.6"/>
<stop offset="0.19" stop-color="#3851E7" stop-opacity="0.57"/>
<stop offset="0.21" stop-color="#3248DB" stop-opacity="0.51"/>
<stop offset="0.26" stop-color="#2535C1" stop-opacity="0.37"/>
<stop offset="0.31" stop-color="#1924AB" stop-opacity="0.26"/>
<stop offset="0.37" stop-color="#101799" stop-opacity="0.16"/>
<stop offset="0.44" stop-color="#090D8C" stop-opacity="0.09"/>
<stop offset="0.53" stop-color="#040582" stop-opacity="0.04"/>
<stop offset="0.65" stop-color="#01017D" stop-opacity="0.01"/>
<stop offset="0.98" stop-color="#00007B" stop-opacity="0"/>
</linearGradient>
<linearGradient id="paint1_linear_98_801" x1="14.2141" y1="27.407" x2="20.6234" y2="20.8813" gradientUnits="userSpaceOnUse">
<stop offset="0.05" stop-color="#3750E2" stop-opacity="0.6"/>
<stop offset="0.43" stop-color="#3851E7" stop-opacity="0.57"/>
<stop offset="0.44" stop-color="#364DE2" stop-opacity="0.55"/>
<stop offset="0.6" stop-color="#1F2CB6" stop-opacity="0.31"/>
<stop offset="0.74" stop-color="#0E1496" stop-opacity="0.14"/>
<stop offset="0.85" stop-color="#040582" stop-opacity="0.04"/>
<stop offset="0.92" stop-color="#00007B" stop-opacity="0"/>
</linearGradient>
</defs>
</svg>
