<svg width="324" height="60" viewBox="0 0 324 60" fill="none" xmlns="http://www.w3.org/2000/svg">
<path d="M25.3599 25.56L22.4799 32.96H28.1999L27.7599 35.44H21.5199L18.1599 44H15.4799L18.8399 35.44H9.95992L6.59992 44H3.91992L7.27992 35.44H0.919922L1.35992 32.96H8.23992L11.1199 25.56H4.83992L5.31992 23.08H12.0799L15.4799 14.4H18.1599L14.7599 23.08H23.6399L27.0399 14.4H29.7199L26.3199 23.08H32.1599L31.6799 25.56H25.3599ZM22.6799 25.56H13.7999L10.9199 32.96H19.7999L22.6799 25.56ZM51.5408 16.04L47.8208 37.2C47.4475 39.3333 46.4875 41.0533 44.9408 42.36C43.3942 43.64 41.5275 44.28 39.3408 44.28C37.3942 44.28 35.8608 43.76 34.7408 42.72C33.6475 41.68 33.1008 40.2533 33.1008 38.44C33.1008 37.8 33.1542 37.2 33.2608 36.64H36.1008C36.0208 37.12 35.9808 37.5733 35.9808 38C35.9808 39.1467 36.2875 40.0667 36.9008 40.76C37.5142 41.4533 38.4742 41.8 39.7808 41.8C41.2742 41.8 42.4608 41.36 43.3408 40.48C44.2208 39.6 44.7808 38.5067 45.0208 37.2L48.7408 16.04H51.5408ZM54.2618 33.04C54.6618 30.8 55.4618 28.84 56.6618 27.16C57.8618 25.4533 59.3284 24.1467 61.0618 23.24C62.8218 22.3067 64.7018 21.84 66.7018 21.84C68.7818 21.84 70.4884 22.32 71.8218 23.28C73.1551 24.24 74.0218 25.4667 74.4218 26.96L75.2618 22.16H78.0618L74.2218 44H71.4218L72.2618 39.16C71.3551 40.6533 70.0484 41.8933 68.3418 42.88C66.6618 43.84 64.7818 44.32 62.7018 44.32C60.9684 44.32 59.4484 43.96 58.1418 43.24C56.8351 42.52 55.8218 41.5067 55.1018 40.2C54.3818 38.8667 54.0218 37.3067 54.0218 35.52C54.0218 34.7467 54.1018 33.92 54.2618 33.04ZM73.3418 33.08C73.4751 32.3333 73.5418 31.6667 73.5418 31.08C73.5418 29 72.9151 27.3467 71.6618 26.12C70.4084 24.8933 68.7818 24.28 66.7818 24.28C65.2351 24.28 63.7818 24.6267 62.4218 25.32C61.0884 26.0133 59.9551 27.0267 59.0218 28.36C58.0884 29.6667 57.4618 31.2267 57.1418 33.04C57.0084 33.84 56.9418 34.52 56.9418 35.08C56.9418 37.1867 57.5551 38.8533 58.7818 40.08C60.0351 41.28 61.6618 41.88 63.6618 41.88C65.1551 41.88 66.5818 41.52 67.9418 40.8C69.3284 40.08 70.4884 39.0533 71.4218 37.72C72.3818 36.3867 73.0218 34.84 73.3418 33.08ZM87.694 33.08L96.214 44H92.414L85.134 34.24L83.414 44H80.614L85.854 14.4H88.654L85.534 31.92L96.094 22.16H99.974L87.694 33.08ZM113.193 21.84C115.033 21.84 116.606 22.2 117.913 22.92C119.219 23.6133 120.206 24.5733 120.873 25.8C121.566 27.0267 121.913 28.4267 121.913 30C121.913 30.72 121.859 31.36 121.753 31.92C121.593 32.72 121.433 33.44 121.273 34.08H103.153C103.073 34.5867 103.033 35.0667 103.033 35.52C103.033 37.5733 103.646 39.16 104.873 40.28C106.126 41.4 107.713 41.96 109.633 41.96C111.473 41.96 113.086 41.52 114.473 40.64C115.859 39.76 116.873 38.5733 117.513 37.08H120.513C119.606 39.2133 118.153 40.96 116.153 42.32C114.179 43.6533 111.873 44.32 109.233 44.32C106.513 44.32 104.326 43.5467 102.673 42C101.046 40.4267 100.233 38.2933 100.233 35.6C100.233 34.8 100.313 33.96 100.473 33.08C100.873 30.8133 101.673 28.8267 102.873 27.12C104.099 25.4133 105.606 24.1067 107.393 23.2C109.179 22.2933 111.113 21.84 113.193 21.84ZM118.873 32C119.006 31.2533 119.073 30.6267 119.073 30.12C119.073 28.2267 118.473 26.7733 117.273 25.76C116.073 24.7467 114.539 24.24 112.673 24.24C111.313 24.24 110.006 24.5333 108.753 25.12C107.499 25.7067 106.406 26.5867 105.473 27.76C104.539 28.9333 103.899 30.3467 103.553 32H118.873ZM130.436 16.04H133.676L128.636 24.68H126.596L130.436 16.04ZM139.886 44.32C137.673 44.32 135.873 43.8133 134.486 42.8C133.1 41.76 132.406 40.3467 132.406 38.56C132.406 38.24 132.42 38 132.446 37.84H135.166C135.06 39.12 135.433 40.1467 136.286 40.92C137.14 41.6933 138.393 42.08 140.046 42.08C141.726 42.08 143.073 41.7333 144.086 41.04C145.1 40.32 145.606 39.3733 145.606 38.2C145.606 37.5067 145.393 36.92 144.966 36.44C144.54 35.96 144.006 35.5733 143.366 35.28C142.753 34.96 141.886 34.6 140.766 34.2C139.38 33.6933 138.26 33.2267 137.406 32.8C136.58 32.3467 135.86 31.7333 135.246 30.96C134.66 30.16 134.366 29.16 134.366 27.96C134.366 26.76 134.713 25.6933 135.406 24.76C136.1 23.8267 137.046 23.1067 138.246 22.6C139.473 22.0933 140.86 21.84 142.406 21.84C144.566 21.84 146.326 22.3733 147.686 23.44C149.073 24.5067 149.766 25.92 149.766 27.68C149.766 28.0533 149.753 28.3333 149.726 28.52H147.086C147.113 28.4133 147.126 28.24 147.126 28C147.126 26.8267 146.66 25.88 145.726 25.16C144.82 24.44 143.646 24.08 142.206 24.08C140.766 24.08 139.566 24.4267 138.606 25.12C137.673 25.7867 137.206 26.6933 137.206 27.84C137.206 28.6133 137.433 29.2667 137.886 29.8C138.34 30.3067 138.9 30.72 139.566 31.04C140.233 31.36 141.126 31.7333 142.246 32.16C143.58 32.6667 144.646 33.1333 145.446 33.56C146.273 33.9867 146.966 34.5733 147.526 35.32C148.086 36.0667 148.366 37 148.366 38.12C148.366 40.0133 147.58 41.52 146.006 42.64C144.433 43.76 142.393 44.32 139.886 44.32ZM186.194 24.08C185.767 26.48 184.634 28.4133 182.794 29.88C180.954 31.3467 178.46 32.08 175.314 32.08H169.674L167.594 44H164.794L169.714 16.04H178.154C180.9 16.04 182.954 16.6133 184.314 17.76C185.674 18.9067 186.354 20.4533 186.354 22.4C186.354 23.0133 186.3 23.5733 186.194 24.08ZM175.754 29.76C180.127 29.76 182.647 27.8667 183.314 24.08C183.42 23.3867 183.474 22.8933 183.474 22.6C183.474 19.72 181.567 18.28 177.754 18.28H172.114L170.114 29.76H175.754ZM196.972 44.32C195.159 44.32 193.559 43.96 192.172 43.24C190.785 42.4933 189.705 41.4533 188.932 40.12C188.185 38.76 187.812 37.1733 187.812 35.36C187.812 32.9067 188.372 30.6533 189.492 28.6C190.612 26.52 192.172 24.88 194.172 23.68C196.172 22.4533 198.399 21.84 200.852 21.84C202.665 21.84 204.265 22.2133 205.652 22.96C207.039 23.68 208.119 24.72 208.892 26.08C209.665 27.4133 210.052 28.9867 210.052 30.8C210.052 33.28 209.479 35.5467 208.332 37.6C207.185 39.6533 205.612 41.2933 203.612 42.52C201.639 43.72 199.425 44.32 196.972 44.32ZM197.292 41.96C199.185 41.96 200.879 41.4533 202.372 40.44C203.892 39.4267 205.065 38.08 205.892 36.4C206.745 34.72 207.172 32.9067 207.172 30.96C207.172 28.7733 206.532 27.1067 205.252 25.96C203.999 24.8133 202.399 24.24 200.452 24.24C198.559 24.24 196.865 24.7467 195.372 25.76C193.905 26.7733 192.759 28.12 191.932 29.8C191.105 31.48 190.692 33.2933 190.692 35.24C190.692 37.4 191.319 39.0667 192.572 40.24C193.825 41.3867 195.399 41.96 197.292 41.96ZM218.916 26.52C219.796 25 220.943 23.8267 222.356 23C223.769 22.1733 225.409 21.76 227.276 21.76L226.756 24.68H225.956C224.036 24.68 222.383 25.1733 220.996 26.16C219.609 27.1467 218.649 28.7733 218.116 31.04L215.836 44H213.036L216.876 22.16H219.676L218.916 26.52ZM232.168 38.08C232.088 38.56 232.048 38.9733 232.048 39.32C232.048 40.1733 232.275 40.7733 232.728 41.12C233.208 41.44 233.981 41.6 235.048 41.6H237.608L237.168 44H234.168C232.515 44 231.275 43.68 230.448 43.04C229.621 42.4 229.208 41.3467 229.208 39.88C229.208 39.2933 229.261 38.6933 229.368 38.08L231.768 24.52H228.728L229.168 22.16H232.208L233.168 16.68H235.968L235.008 22.16H241.048L240.608 24.52H234.568L232.168 38.08ZM255.146 16.12C253.333 16.12 251.999 16.4667 251.146 17.16C250.293 17.8533 249.719 19.0133 249.426 20.64L249.146 22.16H254.266L253.826 24.52H248.746L245.306 44H242.506L245.946 24.52H242.906L243.346 22.16H246.346L246.626 20.64C247.053 18.2667 247.973 16.52 249.386 15.4C250.799 14.28 252.866 13.72 255.586 13.72L255.146 16.12ZM264.394 44.32C262.58 44.32 260.98 43.96 259.594 43.24C258.207 42.4933 257.127 41.4533 256.354 40.12C255.607 38.76 255.234 37.1733 255.234 35.36C255.234 32.9067 255.794 30.6533 256.914 28.6C258.034 26.52 259.594 24.88 261.594 23.68C263.594 22.4533 265.82 21.84 268.274 21.84C270.087 21.84 271.687 22.2133 273.074 22.96C274.46 23.68 275.54 24.72 276.314 26.08C277.087 27.4133 277.474 28.9867 277.474 30.8C277.474 33.28 276.9 35.5467 275.754 37.6C274.607 39.6533 273.034 41.2933 271.034 42.52C269.06 43.72 266.847 44.32 264.394 44.32ZM264.714 41.96C266.607 41.96 268.3 41.4533 269.794 40.44C271.314 39.4267 272.487 38.08 273.314 36.4C274.167 34.72 274.594 32.9067 274.594 30.96C274.594 28.7733 273.954 27.1067 272.674 25.96C271.42 24.8133 269.82 24.24 267.874 24.24C265.98 24.24 264.287 24.7467 262.794 25.76C261.327 26.7733 260.18 28.12 259.354 29.8C258.527 31.48 258.114 33.2933 258.114 35.24C258.114 37.4 258.74 39.0667 259.994 40.24C261.247 41.3867 262.82 41.96 264.714 41.96ZM288.498 14.4L283.258 44H280.458L285.698 14.4H288.498ZM295.598 18.04C295.092 18.04 294.678 17.8933 294.358 17.6C294.038 17.28 293.878 16.8667 293.878 16.36C293.878 15.6667 294.118 15.0933 294.598 14.64C295.078 14.16 295.652 13.92 296.318 13.92C296.825 13.92 297.225 14.0667 297.518 14.36C297.838 14.6533 297.998 15.04 297.998 15.52C297.998 16.2133 297.758 16.8133 297.278 17.32C296.798 17.8 296.238 18.04 295.598 18.04ZM296.238 22.16L292.398 44H289.598L293.438 22.16H296.238ZM308.339 44.32C306.526 44.32 304.926 43.96 303.539 43.24C302.152 42.4933 301.072 41.4533 300.299 40.12C299.552 38.76 299.179 37.1733 299.179 35.36C299.179 32.9067 299.739 30.6533 300.859 28.6C301.979 26.52 303.539 24.88 305.539 23.68C307.539 22.4533 309.766 21.84 312.219 21.84C314.032 21.84 315.632 22.2133 317.019 22.96C318.406 23.68 319.486 24.72 320.259 26.08C321.032 27.4133 321.419 28.9867 321.419 30.8C321.419 33.28 320.846 35.5467 319.699 37.6C318.552 39.6533 316.979 41.2933 314.979 42.52C313.006 43.72 310.792 44.32 308.339 44.32ZM308.659 41.96C310.552 41.96 312.246 41.4533 313.739 40.44C315.259 39.4267 316.432 38.08 317.259 36.4C318.112 34.72 318.539 32.9067 318.539 30.96C318.539 28.7733 317.899 27.1067 316.619 25.96C315.366 24.8133 313.766 24.24 311.819 24.24C309.926 24.24 308.232 24.7467 306.739 25.76C305.272 26.7733 304.126 28.12 303.299 29.8C302.472 31.48 302.059 33.2933 302.059 35.24C302.059 37.4 302.686 39.0667 303.939 40.24C305.192 41.3867 306.766 41.96 308.659 41.96Z" fill="#1A1A1A"/>
</svg>
