<svg width="100" height="100" viewBox="0 0 100 100" fill="none" xmlns="http://www.w3.org/2000/svg">
<path d="M14.873 88.9656L7.05664 1.29761H92.9441L85.1191 88.9523L49.948 98.7023L14.873 88.9656Z" fill="#E44D26"/>
<path d="M50 91.25L78.4203 83.3703L85.107 8.46558H50V91.25Z" fill="#F16529"/>
<path d="M50.0008 40.9805H35.7727L34.7898 29.9696H50.0008V19.218H23.0391L23.2969 22.1024L25.9391 51.7329H50.0008V40.9805ZM50.0008 68.9047L49.9531 68.918L37.9789 65.6836L37.2141 57.1094H26.4195L27.9258 73.9915L49.9516 80.1055L50.0008 80.0922V68.9047Z" fill="#EBEBEB"/>
<path d="M49.9629 40.9805V51.7329H63.2027L61.9551 65.6774L49.9629 68.9141V80.1008L72.0059 73.9915L72.1676 72.1751L74.6941 43.868L74.9559 40.9805H72.059H49.9629ZM49.9629 19.218V29.9696H75.9348L76.1504 27.554L76.641 22.1024L76.898 19.218H49.9629Z" fill="white"/>
</svg>
