<svg width="85" height="50" viewBox="0 0 85 50" fill="none" xmlns="http://www.w3.org/2000/svg">
<g clip-path="url(#clip0_196_5)">
<path d="M0.33 34.46C0.09 34.44 -0.09 34.38 -0.21 34.28C-0.33 34.18 -0.37 33.96 -0.33 33.62C-0.37 33.38 -0.33 33.19 -0.21 33.05C-0.09 32.91 0.06 32.78 0.24 32.66C0.42 32.52 0.6 32.38 0.78 32.24C0.96 32.1 1.09 31.92 1.17 31.7L1.95 30.98L2.46 30.5L3.66 28.64C3.86 28.5 4.06 28.33 4.26 28.13C4.48 27.91 4.69 27.69 4.89 27.47C5.09 27.25 5.28 27.04 5.46 26.84C5.64 26.64 5.8 26.47 5.94 26.33L6.18 26.09C6.24 25.95 6.35 25.79 6.51 25.61C6.67 25.41 6.8 25.28 6.9 25.22L8.01 24.02C8.09 23.76 8.2 23.5 8.34 23.24C8.5 22.98 8.68 22.72 8.88 22.46C9.08 22.18 9.28 21.91 9.48 21.65C9.68 21.39 9.87 21.12 10.05 20.84C10.33 20.52 10.55 20.22 10.71 19.94C10.87 19.64 11.01 19.32 11.13 18.98C11.17 18.92 11.27 18.78 11.43 18.56C11.61 18.32 11.72 18.14 11.76 18.02C11.36 18.02 10.98 18.14 10.62 18.38C10.28 18.6 10.02 18.76 9.84 18.86C9.68 18.96 9.53 19.07 9.39 19.19C9.25 19.29 9.11 19.36 8.97 19.4C8.69 19.46 8.42 19.56 8.16 19.7C7.92 19.82 7.68 19.95 7.44 20.09C7.2 20.23 6.96 20.37 6.72 20.51C6.48 20.63 6.22 20.72 5.94 20.78C5.7 21 5.41 21.22 5.07 21.44C4.75 21.64 4.41 21.72 4.05 21.68C3.83 21.72 3.59 21.78 3.33 21.86C3.09 21.92 2.84 21.92 2.58 21.86C2.4 21.88 2.19 21.87 1.95 21.83C1.73 21.77 1.57 21.69 1.47 21.59C1.29 21.47 1.14 21.38 1.02 21.32C0.92 21.24 0.87 21.12 0.87 20.96C0.87 20.7 0.92 20.52 1.02 20.42C1.12 20.3 1.24 20.21 1.38 20.15C1.52 20.09 1.67 20.05 1.83 20.03C1.99 19.99 2.15 19.91 2.31 19.79L3.48 19.67C3.82 19.55 4.18 19.38 4.56 19.16C4.96 18.94 5.39 18.74 5.85 18.56C6.07 18.4 6.3 18.27 6.54 18.17C6.8 18.07 7.06 17.98 7.32 17.9C7.58 17.8 7.85 17.7 8.13 17.6C8.41 17.48 8.7 17.33 9 17.15C9.52 16.91 9.95 16.7 10.29 16.52C10.65 16.32 11.08 16.08 11.58 15.8C11.86 15.6 12.27 15.4 12.81 15.2C13.35 15 13.79 14.89 14.13 14.87C14.23 14.89 14.35 14.95 14.49 15.05C14.65 15.13 14.8 15.23 14.94 15.35C15.08 15.45 15.19 15.56 15.27 15.68C15.37 15.8 15.42 15.9 15.42 15.98C15.42 16.08 15.41 16.17 15.39 16.25C15.37 16.33 15.35 16.45 15.33 16.61C15.23 17.05 15.06 17.51 14.82 17.99C14.6 18.47 14.35 18.85 14.07 19.13C14.05 19.21 14.01 19.34 13.95 19.52C13.89 19.68 13.81 19.86 13.71 20.06C13.63 20.24 13.55 20.41 13.47 20.57C13.39 20.71 13.32 20.8 13.26 20.84C13.16 20.94 13.05 21.09 12.93 21.29C12.81 21.49 12.69 21.7 12.57 21.92C12.45 22.14 12.34 22.36 12.24 22.58C12.14 22.78 12.07 22.92 12.03 23C12.01 23.06 12.14 23.15 12.42 23.27C12.72 23.37 13.09 23.48 13.53 23.6C13.99 23.7 14.47 23.79 14.97 23.87C15.49 23.95 15.97 24 16.41 24.02C16.75 24.14 16.98 24.29 17.1 24.47C17.24 24.65 17.33 24.82 17.37 24.98C17.27 25.14 17.13 25.34 16.95 25.58C16.77 25.8 16.56 25.94 16.32 26C16.22 26.04 16.08 26.1 15.9 26.18C15.72 26.24 15.63 26.25 15.63 26.21C15.19 26.17 14.75 26.11 14.31 26.03C13.87 25.93 13.44 25.82 13.02 25.7C12.62 25.58 12.26 25.46 11.94 25.34C11.62 25.2 11.36 25.07 11.16 24.95C10.94 24.89 10.73 24.86 10.53 24.86C10.33 24.84 10.15 24.91 9.99 25.07C9.77 25.39 9.49 25.74 9.15 26.12C8.81 26.48 8.53 26.76 8.31 26.96C8.27 27.1 8.2 27.25 8.1 27.41C8 27.57 7.89 27.73 7.77 27.89C7.65 28.03 7.53 28.16 7.41 28.28C7.29 28.4 7.19 28.48 7.11 28.52L7.02 28.55C6.92 28.73 6.78 28.92 6.6 29.12C6.44 29.32 6.19 29.54 5.85 29.78C5.57 30.12 5.29 30.49 5.01 30.89C4.73 31.27 4.36 31.59 3.9 31.85L3.36 32.36C3.22 32.52 3.02 32.72 2.76 32.96C2.5 33.18 2.22 33.4 1.92 33.62C1.62 33.84 1.33 34.03 1.05 34.19C0.77 34.35 0.55 34.44 0.39 34.46H0.33ZM17.16 37.34C17.08 37.34 16.98 37.28 16.86 37.16C16.76 37.06 16.66 36.93 16.56 36.77C16.48 36.63 16.42 36.46 16.38 36.26C16.36 36.06 16.4 35.87 16.5 35.69C16.5 35.49 16.54 35.3 16.62 35.12C16.7 34.96 16.79 34.78 16.89 34.58C16.99 34.38 17.08 34.15 17.16 33.89C17.24 33.63 17.3 33.31 17.34 32.93C17.34 32.47 17.42 32.04 17.58 31.64C17.74 31.24 17.89 30.87 18.03 30.53C18.05 29.95 18.1 29.33 18.18 28.67C18.28 28.01 18.35 27.39 18.39 26.81L18.57 25.55L18.69 25.22V24.77L18.66 24.74C18.66 24.68 18.65 24.62 18.63 24.56C18.63 24.5 18.63 24.45 18.63 24.41L18.75 24.11V23.42L18.78 23.15L18.9 22.82L19.05 19.7C19.11 19.62 19.14 19.47 19.14 19.25C19.14 19.03 19.11 18.81 19.05 18.59C18.99 18.35 18.94 18.09 18.9 17.81L18.93 17.6L19.02 17.18L19.05 16.7L18.93 16.37V16.31L18.9 16.28C18.9 16.12 18.92 15.98 18.96 15.86C19 15.72 19.02 15.58 19.02 15.44L18.9 14.45L18.66 14.15C18.66 14.17 18.62 14.11 18.54 13.97C18.48 13.83 18.42 13.71 18.36 13.61L18.15 13.31L18.12 13.16C17.98 13.02 17.82 12.83 17.64 12.59C17.48 12.33 17.42 12.13 17.46 11.99C17.5 11.61 17.63 11.33 17.85 11.15C18.09 10.95 18.35 10.87 18.63 10.91C18.75 10.91 18.89 10.93 19.05 10.97C19.23 10.99 19.39 11.03 19.53 11.09C19.69 11.15 19.83 11.23 19.95 11.33C20.07 11.41 20.14 11.51 20.16 11.63C20.26 11.79 20.37 11.97 20.49 12.17C20.61 12.35 20.74 12.52 20.88 12.68L21.06 13.01L21.15 13.34C21.33 13.6 21.44 13.81 21.48 13.97C21.54 14.11 21.63 14.34 21.75 14.66C21.85 14.78 21.91 14.91 21.93 15.05C21.95 15.19 21.99 15.34 22.05 15.5L21.81 17.54L21.78 19.85L21.75 20.99C21.79 21.33 21.78 21.63 21.72 21.89C21.68 22.15 21.61 22.4 21.51 22.64L21.39 23.18C21.39 23.34 21.37 23.48 21.33 23.6C21.31 23.72 21.3 23.86 21.3 24.02V24.05C21.38 24.01 21.49 23.92 21.63 23.78C21.67 23.74 21.72 23.71 21.78 23.69C21.84 23.65 21.9 23.61 21.96 23.57H22.02L22.8 22.64C22.96 22.5 23.12 22.39 23.28 22.31C23.46 22.23 23.62 22.14 23.76 22.04V22.01L23.88 21.74L24.24 21.17C24.26 21.15 24.38 21.05 24.6 20.87C24.82 20.67 25.08 20.46 25.38 20.24C25.68 20.02 25.98 19.81 26.28 19.61C26.6 19.39 26.85 19.24 27.03 19.16L27.33 18.89C27.43 18.81 27.56 18.76 27.72 18.74C27.88 18.7 27.99 18.67 28.05 18.65C28.27 18.69 28.49 18.83 28.71 19.07C28.95 19.31 29.07 19.53 29.07 19.73L28.86 19.67C28.9 20.13 28.85 20.49 28.71 20.75C28.57 21.01 28.39 21.23 28.17 21.41C27.95 21.57 27.7 21.72 27.42 21.86C27.16 21.98 26.91 22.14 26.67 22.34V22.4C26.57 22.52 26.43 22.63 26.25 22.73C26.07 22.81 25.9 22.87 25.74 22.91L25.2 23.36V23.39L24.84 23.75L24.75 23.81L24.36 24.17C24.24 24.27 24.09 24.41 23.91 24.59C23.75 24.75 23.57 24.91 23.37 25.07H23.19C23.13 25.13 23.05 25.21 22.95 25.31C22.87 25.41 22.78 25.52 22.68 25.64C22.58 25.74 22.48 25.83 22.38 25.91C22.3 25.99 22.24 26.03 22.2 26.03C22.14 26.09 22.08 26.17 22.02 26.27C21.98 26.37 21.93 26.46 21.87 26.54C21.83 26.76 21.72 26.94 21.54 27.08C21.38 27.2 21.23 27.36 21.09 27.56L20.79 27.8L20.88 27.98C20.92 28.22 20.88 28.59 20.76 29.09C20.64 29.57 20.5 30.08 20.34 30.62C20.2 31.16 20.06 31.68 19.92 32.18C19.78 32.68 19.71 33.06 19.71 33.32C19.59 33.48 19.49 33.68 19.41 33.92C19.33 34.16 19.26 34.41 19.2 34.67C19.14 34.91 19.09 35.13 19.05 35.33C19.01 35.55 18.96 35.7 18.9 35.78L18.87 35.99L18.69 36.53L18.72 36.41C18.48 36.77 18.24 37.03 18 37.19C17.78 37.37 17.5 37.43 17.16 37.37V37.34ZM47.8929 38.75C47.8529 38.71 47.7929 38.65 47.7129 38.57C47.6529 38.51 47.6129 38.46 47.5929 38.42L47.5029 38.09V38.03C47.5029 37.87 47.5229 37.69 47.5629 37.49C47.6029 37.31 47.6329 37.14 47.6529 36.98C47.6929 36.76 47.7229 36.48 47.7429 36.14C47.7829 35.8 47.8129 35.44 47.8329 35.06C47.8729 34.7 47.9029 34.35 47.9229 34.01C47.9629 33.67 47.9829 33.38 47.9829 33.14C48.0029 33.04 48.0029 32.93 47.9829 32.81C47.9829 32.69 47.9729 32.57 47.9529 32.45L47.9229 31.97C47.8829 31.73 47.8829 31.5 47.9229 31.28V31.04L47.9529 30.59V29.39C47.9729 29.27 47.9629 29.13 47.9229 28.97C47.8829 28.81 47.8729 28.66 47.8929 28.52L47.2629 28.91L47.2329 29C47.1129 29.14 46.9329 29.28 46.6929 29.42C46.4729 29.54 46.2329 29.66 45.9729 29.78C45.7129 29.88 45.4629 29.98 45.2229 30.08C44.9829 30.16 44.7829 30.23 44.6229 30.29C44.4629 30.35 44.3329 30.43 44.2329 30.53C44.1329 30.63 44.0329 30.7 43.9329 30.74C43.6129 30.9 43.1829 31.11 42.6429 31.37C42.1229 31.61 41.5829 31.85 41.0229 32.09C40.4629 32.33 39.9429 32.53 39.4629 32.69C39.0029 32.85 38.6729 32.92 38.4729 32.9C38.3929 32.9 38.2929 32.87 38.1729 32.81C38.0729 32.73 37.9729 32.64 37.8729 32.54C37.7929 32.42 37.7229 32.31 37.6629 32.21C37.6029 32.09 37.5829 31.98 37.6029 31.88C37.6229 31.6 37.7929 31.35 38.1129 31.13C38.4529 30.89 38.7429 30.74 38.9829 30.68V30.65L39.8829 30.23L40.1229 30.11L41.9829 29.21L42.2529 29.15C42.3529 29.05 42.4629 28.97 42.5829 28.91C42.7029 28.83 42.8229 28.76 42.9429 28.7C43.1229 28.62 43.3229 28.54 43.5429 28.46C43.7629 28.38 43.9729 28.31 44.1729 28.25C44.2329 28.13 44.4329 27.99 44.7729 27.83C45.1129 27.65 45.4829 27.47 45.8829 27.29C46.2829 27.11 46.6429 26.94 46.9629 26.78C47.3029 26.62 47.5029 26.51 47.5629 26.45L47.9229 26.33L48.0129 26.27L48.1629 26.15L48.2529 26.12C48.4729 26.06 48.6429 25.99 48.7629 25.91C48.8829 25.83 49.0729 25.8 49.3329 25.82C49.6729 25.82 49.9929 25.94 50.2929 26.18C50.6129 26.4 50.7729 26.71 50.7729 27.11C50.7529 27.35 50.7129 27.59 50.6529 27.83C50.6129 28.07 50.5929 28.31 50.5929 28.55L50.6229 28.85L50.6529 29.09C50.6929 29.15 50.7129 29.31 50.7129 29.57C50.7329 29.81 50.7429 30.08 50.7429 30.38C50.7429 30.66 50.7329 30.94 50.7129 31.22C50.6929 31.48 50.6829 31.67 50.6829 31.79C50.6829 32.05 50.6629 32.46 50.6229 33.02C50.6029 33.56 50.5629 34.14 50.5029 34.76C50.4629 35.36 50.4029 35.92 50.3229 36.44C50.2429 36.98 50.1329 37.35 49.9929 37.55L49.6929 38L49.3329 38.51C49.2329 38.65 49.0529 38.73 48.7929 38.75C48.5529 38.77 48.3629 38.77 48.2229 38.75H47.8929ZM47.7729 17.27C47.6729 17.33 47.5029 17.43 47.2629 17.57C47.0229 17.69 46.7829 17.77 46.5429 17.81C46.3229 17.93 46.0529 18.05 45.7329 18.17C45.4129 18.29 45.1129 18.43 44.8329 18.59C44.5929 18.61 44.3429 18.67 44.0829 18.77C43.8229 18.85 43.5529 18.89 43.2729 18.89C43.1129 18.89 42.9829 18.87 42.8829 18.83C42.7829 18.79 42.6729 18.73 42.5529 18.65C42.4929 18.93 42.3729 19.18 42.1929 19.4L42.0429 19.76L41.9529 20.03L41.8029 20.15C41.8029 20.17 41.7929 20.19 41.7729 20.21C41.7729 20.21 41.7729 20.22 41.7729 20.24C41.7329 20.36 41.6829 20.41 41.6229 20.39L41.4129 20.87L40.7829 22.07L40.2429 22.94C40.1829 23 40.1029 23.09 40.0029 23.21C39.9029 23.31 39.8029 23.42 39.7029 23.54C39.6029 23.64 39.5229 23.74 39.4629 23.84C39.4029 23.92 39.3729 23.98 39.3729 24.02L36.7329 27.08L34.1529 29.96L33.3129 30.53C33.2129 30.71 33.0429 30.91 32.8029 31.13C32.5829 31.35 32.3429 31.56 32.0829 31.76C31.8429 31.94 31.5929 32.1 31.3329 32.24C31.0729 32.36 30.8629 32.41 30.7029 32.39C30.4229 32.35 30.2229 32.29 30.1029 32.21C30.0029 32.13 29.9929 31.98 30.0729 31.76C30.0529 31.44 30.1229 31.17 30.2829 30.95C30.4429 30.73 30.6629 30.54 30.9429 30.38C31.0629 30.26 31.1729 30.16 31.2729 30.08C31.3929 29.98 31.4929 29.87 31.5729 29.75L32.3529 29.03L32.7129 28.58C33.0729 28.3 33.4129 27.93 33.7329 27.47C34.0529 26.99 34.3929 26.58 34.7529 26.24L35.3229 25.4C35.4429 25.2 35.6029 25 35.8029 24.8C36.0229 24.58 36.2329 24.36 36.4329 24.14C36.6529 23.92 36.8529 23.69 37.0329 23.45C37.2329 23.19 37.3829 22.92 37.4829 22.64L37.8429 21.71C37.9429 21.55 38.0229 21.4 38.0829 21.26C38.1429 21.1 38.2229 20.98 38.3229 20.9L38.6229 20.6L38.9529 19.88L39.0429 19.7C39.0029 19.6 39.0129 19.5 39.0729 19.4C39.1529 19.3 39.2329 19.2 39.3129 19.1C39.3729 19.04 39.4129 18.98 39.4329 18.92H39.5229C39.5629 18.7 39.6129 18.51 39.6729 18.35C39.7329 18.17 39.7829 18 39.8229 17.84C39.8229 17.78 39.8229 17.73 39.8229 17.69C39.8429 17.63 39.8629 17.57 39.8829 17.51L39.6429 17.57C39.5629 17.61 39.4829 17.65 39.4029 17.69C39.3229 17.71 39.2429 17.74 39.1629 17.78L38.8629 18.11C38.3429 18.27 37.8029 18.5 37.2429 18.8C36.6829 19.08 36.1129 19.31 35.5329 19.49H35.3829L33.0429 20.66L33.0729 20.75C32.9929 20.83 32.8629 20.9 32.6829 20.96C32.5229 21 32.3529 21.04 32.1729 21.08C31.9929 21.1 31.8129 21.11 31.6329 21.11C31.4729 21.11 31.3529 21.09 31.2729 21.05C31.0929 21.03 30.9429 20.96 30.8229 20.84C30.7029 20.7 30.6129 20.55 30.5529 20.39C30.4929 20.21 30.4629 20.03 30.4629 19.85C30.4629 19.67 30.4929 19.53 30.5529 19.43L30.7629 19.16L31.4829 18.86C31.7229 18.72 31.9929 18.62 32.2929 18.56C32.5529 18.46 32.8029 18.38 33.0429 18.32C33.2829 18.24 33.5029 18.15 33.7029 18.05L33.7629 18.08C33.9229 17.92 34.0429 17.82 34.1229 17.78C34.2229 17.72 34.4029 17.66 34.6629 17.6C34.6829 17.54 34.7229 17.5 34.7829 17.48C34.8629 17.46 34.9529 17.43 35.0529 17.39L35.2629 17.3L35.6229 17.12H35.7429C35.8029 17.08 35.9029 17.03 36.0429 16.97C36.2029 16.89 36.3529 16.82 36.4929 16.76C36.6529 16.68 36.7929 16.61 36.9129 16.55C37.0329 16.49 37.0929 16.45 37.0929 16.43C37.0929 16.39 37.1029 16.37 37.1229 16.37C37.1429 16.37 37.1629 16.36 37.1829 16.34C37.2229 16.32 37.2629 16.3 37.3029 16.28L37.5429 16.22L38.4429 15.92C38.7229 15.76 39.0129 15.62 39.3129 15.5C39.6129 15.38 39.8129 15.34 39.9129 15.38V15.32L40.5129 15.17L40.7229 15.08L40.9929 15.02H41.0829L41.1129 14.93C41.2129 14.89 41.3129 14.88 41.4129 14.9C41.5329 14.9 41.6529 14.9 41.7729 14.9L42.0429 15.08C42.5029 15.06 42.8129 15.22 42.9729 15.56C43.1329 15.9 43.1929 16.25 43.1529 16.61L43.0329 16.88C43.2529 16.86 43.4529 16.84 43.6329 16.82C43.8329 16.78 44.0329 16.78 44.2329 16.82L45.3729 16.52C45.6329 16.38 45.8329 16.26 45.9729 16.16C46.1129 16.06 46.2429 15.97 46.3629 15.89C46.4829 15.79 46.6129 15.7 46.7529 15.62C46.9129 15.54 47.1329 15.46 47.4129 15.38C47.5729 15.38 47.7229 15.43 47.8629 15.53C48.0029 15.61 48.1229 15.72 48.2229 15.86C48.3429 15.98 48.4329 16.11 48.4929 16.25C48.5529 16.39 48.5729 16.51 48.5529 16.61C48.5529 16.97 48.2929 17.19 47.7729 17.27ZM42.4629 21.71C42.9629 21.59 43.4429 21.56 43.9029 21.62C44.3629 21.66 44.6329 21.68 44.7129 21.68H45.2829C45.4829 21.54 45.7629 21.42 46.1229 21.32C46.5029 21.2 46.8929 21.03 47.2929 20.81C47.4529 20.73 47.6329 20.61 47.8329 20.45C48.0529 20.27 48.2729 20.09 48.4929 19.91C48.7129 19.71 48.9229 19.51 49.1229 19.31C49.3229 19.11 49.4829 18.93 49.6029 18.77C49.6029 18.65 49.5929 18.5 49.5729 18.32C49.5529 18.12 49.5229 17.92 49.4829 17.72C49.4629 17.5 49.4429 17.3 49.4229 17.12C49.4029 16.92 49.4029 16.77 49.4229 16.67V16.46L49.5129 16.07C49.5129 16.03 49.5129 16 49.5129 15.98C49.5329 15.94 49.5429 15.9 49.5429 15.86V15.62L49.4229 15.26V15.17H49.3929C49.4329 15.01 49.4729 14.87 49.5129 14.75C49.5529 14.61 49.5629 14.49 49.5429 14.39L49.4229 13.34L49.2129 13.04C49.2129 13.06 49.1629 13 49.0629 12.86C48.9829 12.72 48.9229 12.6 48.8829 12.5L48.6729 12.17H48.5529C48.5129 12.09 48.4529 11.99 48.3729 11.87C48.3129 11.75 48.2429 11.63 48.1629 11.51C48.0829 11.39 48.0129 11.27 47.9529 11.15C47.9129 11.03 47.8929 10.93 47.8929 10.85C47.8929 10.45 48.0229 10.16 48.2829 9.98C48.5629 9.78 48.8529 9.7 49.1529 9.74C49.4729 9.74 49.7729 9.81 50.0529 9.95C50.3329 10.07 50.5229 10.3 50.6229 10.64C50.7629 10.74 50.8929 10.88 51.0129 11.06C51.1529 11.22 51.2929 11.39 51.4329 11.57L51.5529 11.9L51.6729 12.17C51.7729 12.31 51.8529 12.43 51.9129 12.53C51.9729 12.61 52.0129 12.7 52.0329 12.8C52.0729 12.9 52.1029 13.01 52.1229 13.13C52.1629 13.23 52.2029 13.37 52.2429 13.55C52.4229 13.81 52.4929 14.07 52.4529 14.33C52.4529 14.47 52.4529 14.61 52.4529 14.75C52.4729 14.89 52.4629 15.03 52.4229 15.17C52.3829 15.39 52.3729 15.6 52.3929 15.8C52.4129 16 52.4329 16.19 52.4529 16.37L52.0929 19.1L52.0329 18.95C51.9929 19.29 51.9629 19.56 51.9429 19.76C51.9229 19.94 51.9029 20.11 51.8829 20.27C51.8629 20.43 51.8329 20.61 51.7929 20.81C51.7729 21.01 51.7329 21.28 51.6729 21.62C51.6129 21.74 51.5529 21.88 51.4929 22.04C51.4529 22.2 51.4029 22.36 51.3429 22.52C51.3029 22.68 51.2529 22.83 51.1929 22.97C51.1329 23.09 51.0729 23.18 51.0129 23.24V23.45L50.8029 24.05C50.6229 24.27 50.4129 24.48 50.1729 24.68C49.9329 24.86 49.6429 24.91 49.3029 24.83C49.1429 24.77 48.9429 24.59 48.7029 24.29C48.4629 23.97 48.3529 23.61 48.3729 23.21C48.3729 23.09 48.4029 23 48.4629 22.94C48.5429 22.88 48.6229 22.81 48.7029 22.73C48.7829 22.63 48.8729 22.52 48.9729 22.4C49.0729 22.28 49.1529 22.1 49.2129 21.86C49.0529 21.92 48.8829 21.98 48.7029 22.04C48.5229 22.08 48.3529 22.17 48.1929 22.31C47.9729 22.39 47.7529 22.48 47.5329 22.58C47.3129 22.66 47.0729 22.78 46.8129 22.94C46.5529 23.02 46.2929 23.1 46.0329 23.18C45.7929 23.26 45.5629 23.37 45.3429 23.51L45.1329 23.72L43.4829 24.05C42.9029 23.99 42.5029 23.85 42.2829 23.63C42.0629 23.41 41.9329 23.16 41.8929 22.88L41.9529 22.55C42.0129 22.33 42.0829 22.16 42.1629 22.04C42.2429 21.92 42.3429 21.81 42.4629 21.71ZM70.2258 19.25C69.9058 19.25 69.6558 19.25 69.4758 19.25C69.2958 19.25 69.1558 19.24 69.0558 19.22L68.6958 19.61L67.9158 20.45L67.6458 20.69C67.4858 20.85 67.3758 20.95 67.3158 20.99C67.2758 21.03 67.1658 21.13 66.9858 21.29C66.8658 21.37 66.7658 21.47 66.6858 21.59C66.5258 21.75 66.3958 21.86 66.2958 21.92C66.1958 21.98 66.0658 22.09 65.9058 22.25C65.7658 22.35 65.5858 22.48 65.3658 22.64C65.1458 22.8 64.9158 22.98 64.6758 23.18C64.3558 23.44 64.1058 23.66 63.9258 23.84C63.7458 24 63.5858 24.14 63.4458 24.26C63.3058 24.38 63.1458 24.5 62.9658 24.62C62.8058 24.72 62.5658 24.85 62.2458 25.01C61.7458 25.29 61.4058 25.39 61.2258 25.31C61.0458 25.23 60.9158 25.08 60.8358 24.86C60.7758 24.7 60.7558 24.58 60.7758 24.5C60.7958 24.4 60.9058 24.23 61.1058 23.99C61.1658 23.89 61.2358 23.8 61.3158 23.72C61.3958 23.62 61.4658 23.54 61.5258 23.48L61.8558 23.21C62.0158 23.09 62.1058 23.02 62.1258 23C62.1658 22.96 62.2258 22.92 62.3058 22.88C62.3658 22.84 62.4058 22.82 62.4258 22.82C62.4458 22.8 62.4958 22.75 62.5758 22.67L62.6658 22.55L63.2658 21.98L63.6258 21.65C63.7058 21.57 63.7758 21.51 63.8358 21.47C63.8958 21.43 63.9458 21.39 63.9858 21.35C64.0458 21.29 64.1058 21.22 64.1658 21.14C64.2458 21.06 64.3458 20.96 64.4658 20.84C64.5858 20.72 64.6858 20.62 64.7658 20.54C64.8458 20.46 64.9258 20.37 65.0058 20.27C65.0858 20.17 65.1858 20.06 65.3058 19.94C65.4258 19.8 65.6058 19.61 65.8458 19.37C66.0058 19.21 66.1558 19.06 66.2958 18.92C66.4558 18.78 66.5858 18.65 66.6858 18.53L66.9258 18.32C67.0258 18.22 67.0858 18.16 67.1058 18.14C67.1458 18.12 67.2058 18.06 67.2858 17.96C67.3858 17.88 67.4458 17.81 67.4658 17.75C67.5058 17.69 67.6158 17.58 67.7958 17.42C67.9958 17.26 68.1158 17.16 68.1558 17.12C68.1958 17.08 68.2458 17.02 68.3058 16.94L68.6958 16.43C68.7558 16.35 68.8058 16.29 68.8458 16.25C68.8858 16.19 68.9358 16.12 68.9958 16.04C69.0558 15.96 69.1358 15.87 69.2358 15.77C69.3558 15.65 69.5058 15.48 69.6858 15.26C69.8858 15.06 70.0258 14.91 70.1058 14.81C70.2058 14.71 70.2258 14.67 70.1658 14.69C70.1058 14.69 69.9658 14.76 69.7458 14.9C69.5258 15.02 69.1958 15.2 68.7558 15.44C68.3158 15.68 67.9658 15.87 67.7058 16.01C67.4658 16.15 67.2758 16.27 67.1358 16.37C66.9958 16.45 66.8758 16.52 66.7758 16.58C66.6958 16.64 66.5958 16.72 66.4758 16.82C66.3958 16.86 66.3158 16.92 66.2358 17C66.1558 17.06 66.0558 17.12 65.9358 17.18L65.1858 17.63C64.9658 17.75 64.7958 17.85 64.6758 17.93C64.5758 18.01 64.4658 18.1 64.3458 18.2C64.2258 18.28 64.0758 18.37 63.8958 18.47C63.7158 18.57 63.4658 18.7 63.1458 18.86C62.7858 19.04 62.4958 19.17 62.2758 19.25C62.0558 19.31 61.8658 19.34 61.7058 19.34C61.5658 19.34 61.4258 19.31 61.2858 19.25C61.1658 19.19 61.0358 19.11 60.8958 19.01C60.5958 18.79 60.4558 18.6 60.4758 18.44C60.5158 18.26 60.6558 18.01 60.8958 17.69C61.0158 17.53 61.1158 17.41 61.1958 17.33C61.2958 17.23 61.4058 17.15 61.5258 17.09C61.6458 17.01 61.7958 16.94 61.9758 16.88C62.1558 16.8 62.3958 16.68 62.6958 16.52C62.8958 16.42 63.0958 16.32 63.2958 16.22C63.4958 16.12 63.6858 16.03 63.8658 15.95C64.5058 15.67 65.0858 15.35 65.6058 14.99C66.1458 14.61 66.7458 14.26 67.4058 13.94L68.5458 13.31C68.8258 13.15 69.0458 13.03 69.2058 12.95C69.3658 12.85 69.4858 12.77 69.5658 12.71C69.6658 12.65 69.7458 12.6 69.8058 12.56C69.8858 12.5 69.9758 12.43 70.0758 12.35C70.1358 12.31 70.1858 12.26 70.2258 12.2C70.2858 12.14 70.3558 12.09 70.4358 12.05L70.8558 11.78C70.9758 11.7 71.0758 11.63 71.1558 11.57C71.2358 11.51 71.3258 11.47 71.4258 11.45C71.5458 11.41 71.6958 11.4 71.8758 11.42C72.0558 11.44 72.3058 11.5 72.6258 11.6C73.1658 11.76 73.5158 11.94 73.6758 12.14C73.8358 12.34 73.8358 12.71 73.6758 13.25C73.5958 13.49 73.5258 13.68 73.4658 13.82C73.4058 13.94 73.3458 14.05 73.2858 14.15C73.2258 14.25 73.1458 14.36 73.0458 14.48C72.9658 14.58 72.8658 14.72 72.7458 14.9C72.6058 15.08 72.4958 15.23 72.4158 15.35C72.3358 15.45 72.2658 15.54 72.2058 15.62C72.1458 15.68 72.0858 15.74 72.0258 15.8C71.9858 15.86 71.9258 15.93 71.8458 16.01C71.7458 16.11 71.6658 16.19 71.6058 16.25C71.5658 16.31 71.5158 16.37 71.4558 16.43C71.4158 16.49 71.3558 16.57 71.2758 16.67C71.1958 16.75 71.0958 16.87 70.9758 17.03L70.6458 17.39H71.0058C71.0658 17.37 71.1958 17.35 71.3958 17.33C71.5958 17.31 71.8058 17.29 72.0258 17.27C72.2458 17.23 72.4558 17.2 72.6558 17.18C72.8558 17.14 72.9758 17.12 73.0158 17.12L73.6458 16.97L74.8758 16.79C75.0158 16.77 75.1258 16.76 75.2058 16.76C75.3058 16.76 75.4058 16.75 75.5058 16.73C75.6258 16.71 75.7658 16.69 75.9258 16.67C76.0858 16.65 76.3158 16.61 76.6158 16.55C76.9158 16.51 77.1558 16.49 77.3358 16.49C77.5358 16.47 77.6958 16.48 77.8158 16.52C77.9558 16.56 78.0858 16.63 78.2058 16.73C78.3258 16.83 78.4758 16.97 78.6558 17.15C78.7958 17.31 78.9158 17.46 79.0158 17.6C79.1158 17.74 79.1558 17.85 79.1358 17.93C78.9758 18.47 78.6758 18.81 78.2358 18.95C77.7958 19.07 77.3258 19.09 76.8258 19.01C76.6458 18.99 76.4158 18.98 76.1358 18.98C75.8558 18.98 75.5658 18.99 75.2658 19.01C74.9858 19.01 74.7058 19.03 74.4258 19.07C74.1658 19.09 73.9558 19.1 73.7958 19.1C73.7158 19.1 73.5858 19.1 73.4058 19.1C73.2258 19.1 73.0258 19.11 72.8058 19.13C72.5458 19.15 72.3358 19.17 72.1758 19.19C72.0358 19.19 71.8858 19.2 71.7258 19.22C71.5658 19.22 71.3658 19.23 71.1258 19.25C70.9058 19.25 70.6058 19.25 70.2258 19.25ZM55.2558 30.62C55.2558 30.52 55.2758 30.39 55.3158 30.23C55.3358 30.13 55.3658 30.05 55.4058 29.99C55.4458 29.93 55.5158 29.87 55.6158 29.81C55.7158 29.75 55.8558 29.68 56.0358 29.6C56.2158 29.5 56.4558 29.36 56.7558 29.18C57.0558 29 57.2958 28.88 57.4758 28.82C57.6758 28.76 57.8358 28.73 57.9558 28.73C58.0958 28.71 58.2258 28.71 58.3458 28.73C58.4658 28.75 58.6058 28.74 58.7658 28.7L59.4258 28.52C59.5858 28.42 59.7458 28.33 59.9058 28.25C60.0658 28.17 60.2258 28.09 60.3858 28.01C60.4858 27.95 60.5958 27.89 60.7158 27.83C60.8358 27.75 60.9558 27.69 61.0758 27.65C61.1158 27.61 61.1558 27.58 61.1958 27.56C61.2358 27.54 61.2658 27.5 61.2858 27.44C61.3458 27.42 61.3958 27.4 61.4358 27.38C61.4958 27.36 61.5558 27.35 61.6158 27.35C61.7958 27.27 61.9158 27.23 61.9758 27.23C62.0358 27.21 62.1558 27.18 62.3358 27.14C62.4158 27.12 62.4858 27.11 62.5458 27.11C62.6058 27.09 62.6758 27.06 62.7558 27.02C62.8558 26.96 62.9858 26.89 63.1458 26.81C63.3058 26.73 63.5358 26.62 63.8358 26.48C64.1358 26.34 64.3658 26.24 64.5258 26.18C64.7058 26.12 64.8458 26.08 64.9458 26.06C65.0658 26.02 65.1558 25.99 65.2158 25.97C65.2758 25.95 65.3558 25.92 65.4558 25.88C65.6358 25.8 65.7458 25.76 65.7858 25.76C65.8458 25.74 65.9158 25.71 65.9958 25.67L67.9758 24.62C68.3158 24.46 68.6158 24.31 68.8758 24.17C69.1358 24.01 69.2858 23.92 69.3258 23.9C69.3858 23.86 69.4458 23.83 69.5058 23.81C69.5858 23.77 69.6558 23.74 69.7158 23.72C69.8958 23.6 70.0958 23.5 70.3158 23.42C70.6158 23.26 70.7958 23.18 70.8558 23.18C70.9158 23.16 70.9758 23.14 71.0358 23.12L71.2458 23L71.3058 22.97L71.5158 22.88L71.6658 22.79C71.7458 22.77 71.8058 22.74 71.8458 22.7C71.8858 22.64 72.0758 22.52 72.4158 22.34C72.6558 22.22 72.8458 22.13 72.9858 22.07C73.1258 21.99 73.2858 21.92 73.4658 21.86C73.6458 21.78 73.8658 21.69 74.1258 21.59C74.4058 21.49 74.7858 21.34 75.2658 21.14C75.7458 20.94 76.1158 20.78 76.3758 20.66C76.6358 20.52 76.8358 20.41 76.9758 20.33C77.1158 20.23 77.2258 20.15 77.3058 20.09C77.3858 20.01 77.4958 19.93 77.6358 19.85C77.7758 19.77 77.8858 19.71 77.9658 19.67C78.0658 19.61 78.1758 19.55 78.2958 19.49C78.4158 19.41 78.5658 19.32 78.7458 19.22C78.9458 19.1 79.2258 18.95 79.5858 18.77C79.9058 18.61 80.1558 18.49 80.3358 18.41C80.5358 18.33 80.6858 18.28 80.7858 18.26C80.9058 18.24 80.9858 18.23 81.0258 18.23C81.0658 18.23 81.1058 18.23 81.1458 18.23C81.2058 18.25 81.2858 18.24 81.3858 18.2C81.5058 18.16 81.7458 18.25 82.1058 18.47C82.2658 18.59 82.3658 18.7 82.4058 18.8C82.4658 18.88 82.4958 18.96 82.4958 19.04C82.4958 19.1 82.4758 19.16 82.4358 19.22C82.4158 19.26 82.4058 19.29 82.4058 19.31V19.4C82.4058 19.44 82.3958 19.54 82.3758 19.7C82.3558 19.84 82.3258 19.93 82.2858 19.97C82.2258 20.09 82.0458 20.24 81.7458 20.42C81.4658 20.6 81.1558 20.77 80.8158 20.93C80.4358 21.13 80.1358 21.28 79.9158 21.38C79.6958 21.46 79.5258 21.53 79.4058 21.59C79.2858 21.63 79.1858 21.66 79.1058 21.68C79.0458 21.7 78.9758 21.73 78.8958 21.77C78.7158 21.85 78.5858 21.92 78.5058 21.98C78.4458 22.04 78.2758 22.18 77.9958 22.4C77.8358 22.5 77.6958 22.57 77.5758 22.61C77.4758 22.63 77.3458 22.66 77.1858 22.7C77.0458 22.74 76.8558 22.8 76.6158 22.88C76.3958 22.94 76.0958 23.06 75.7158 23.24C75.3358 23.42 75.0358 23.57 74.8158 23.69C74.6158 23.81 74.4558 23.9 74.3358 23.96C74.2358 24.02 74.1558 24.07 74.0958 24.11C74.0358 24.15 73.9658 24.19 73.8858 24.23C73.8058 24.27 73.7058 24.29 73.5858 24.29L73.3458 24.44C73.2858 24.48 73.2358 24.53 73.1958 24.59C73.1558 24.63 73.0858 24.68 72.9858 24.74C72.9058 24.8 72.7858 24.87 72.6258 24.95C72.4658 25.01 72.2258 25.09 71.9058 25.19C71.6058 25.29 71.3758 25.38 71.2158 25.46C71.0558 25.52 70.9058 25.59 70.7658 25.67C70.6458 25.73 70.5158 25.8 70.3758 25.88C70.2558 25.96 70.0758 26.04 69.8358 26.12C69.5958 26.22 69.3958 26.32 69.2358 26.42C69.0958 26.5 68.9458 26.59 68.7858 26.69C68.6258 26.77 68.4158 26.88 68.1558 27.02C67.9158 27.14 67.5558 27.3 67.0758 27.5C66.5958 27.7 66.2258 27.85 65.9658 27.95C65.7258 28.05 65.5358 28.13 65.3958 28.19C65.2558 28.23 65.1558 28.27 65.0958 28.31C65.0558 28.33 65.0058 28.35 64.9458 28.37C64.8058 28.41 64.7258 28.44 64.7058 28.46C64.6858 28.46 64.6558 28.48 64.6158 28.52L64.4658 28.58L64.3758 28.64L64.0158 28.79L63.9558 28.82C63.9358 28.84 63.9058 28.86 63.8658 28.88C63.8458 28.88 63.7758 28.91 63.6558 28.97C63.5358 29.01 63.3458 29.08 63.0858 29.18C62.8458 29.26 62.5058 29.38 62.0658 29.54C61.7658 29.68 61.4658 29.81 61.1658 29.93C60.8658 30.03 60.5558 30.15 60.2358 30.29C60.1558 30.33 60.0758 30.37 59.9958 30.41C59.9158 30.45 59.8358 30.5 59.7558 30.56C59.6358 30.64 59.5258 30.7 59.4258 30.74C59.3458 30.78 59.2458 30.83 59.1258 30.89C59.0258 30.93 58.8758 30.98 58.6758 31.04C58.4958 31.08 58.2458 31.14 57.9258 31.22C57.5058 31.32 57.1858 31.4 56.9658 31.46C56.7458 31.5 56.5758 31.54 56.4558 31.58C56.3358 31.6 56.2458 31.61 56.1858 31.61C56.1258 31.61 56.0558 31.6 55.9758 31.58C55.8358 31.56 55.7358 31.54 55.6758 31.52C55.6158 31.5 55.5358 31.42 55.4358 31.28C55.3958 31.24 55.3658 31.19 55.3458 31.13C55.3258 31.07 55.2958 31.01 55.2558 30.95V30.62ZM75.2358 36.29C74.5158 36.89 73.7658 37.29 72.9858 37.49C72.2258 37.71 71.3558 37.78 70.3758 37.7C70.0558 37.66 69.7258 37.6 69.3858 37.52C69.0658 37.44 68.7558 37.32 68.4558 37.16C67.9958 36.96 67.6458 36.77 67.4058 36.59C67.1658 36.43 66.9758 36.26 66.8358 36.08C66.7158 35.9 66.6258 35.69 66.5658 35.45C66.5058 35.21 66.4258 34.91 66.3258 34.55C66.1658 33.99 66.1058 33.51 66.1458 33.11C66.2058 32.47 66.3658 31.88 66.6258 31.34C66.8858 30.78 67.2258 30.27 67.6458 29.81C68.0658 29.35 68.5458 28.94 69.0858 28.58C69.6258 28.2 70.1858 27.88 70.7658 27.62L71.0058 27.5C71.0658 27.48 71.1158 27.46 71.1558 27.44C71.2158 27.4 71.2958 27.36 71.3958 27.32C71.4958 27.28 71.6358 27.24 71.8158 27.2C72.0158 27.14 72.2958 27.07 72.6558 26.99C72.9158 26.93 73.1658 26.89 73.4058 26.87C73.6658 26.85 73.8858 26.85 74.0658 26.87C74.1858 26.87 74.3258 26.89 74.4858 26.93C74.6458 26.95 74.7958 26.99 74.9358 27.05C75.0758 27.11 75.1958 27.19 75.2958 27.29C75.3958 27.39 75.4358 27.52 75.4158 27.68C75.3958 27.82 75.3358 27.93 75.2358 28.01C75.1358 28.09 75.0058 28.15 74.8458 28.19C74.6458 28.27 74.4858 28.33 74.3658 28.37C74.2658 28.39 74.1858 28.41 74.1258 28.43C74.0658 28.43 74.0158 28.43 73.9758 28.43C73.9558 28.43 73.9258 28.44 73.8858 28.46C73.7858 28.48 73.6958 28.5 73.6158 28.52C73.5358 28.52 73.3258 28.58 72.9858 28.7C72.7658 28.74 72.5358 28.85 72.2958 29.03C72.1358 29.13 71.9758 29.23 71.8158 29.33C71.6758 29.41 71.5258 29.5 71.3658 29.6C71.0858 29.76 70.8158 29.98 70.5558 30.26C70.2958 30.52 70.0458 30.81 69.8058 31.13C69.5858 31.45 69.3958 31.78 69.2358 32.12C69.0958 32.46 69.0158 32.78 68.9958 33.08C68.9358 33.88 69.1458 34.52 69.6258 35C70.1258 35.48 70.7458 35.76 71.4858 35.84C71.8658 35.88 72.2258 35.82 72.5658 35.66C72.9058 35.5 73.1958 35.28 73.4358 35C73.6958 34.72 73.9058 34.39 74.0658 34.01C74.2258 33.63 74.3258 33.23 74.3658 32.81C74.3858 32.59 74.3858 32.39 74.3658 32.21C74.3458 32.01 74.2858 31.83 74.1858 31.67C74.0658 31.41 73.9458 31.22 73.8258 31.1C73.7058 30.98 73.5958 30.9 73.4958 30.86C73.4158 30.82 73.3358 30.79 73.2558 30.77C73.1758 30.75 73.1058 30.69 73.0458 30.59C72.9458 30.45 72.8958 30.32 72.8958 30.2L72.9858 29.9C73.0658 29.74 73.1158 29.65 73.1358 29.63C73.1758 29.61 73.2158 29.57 73.2558 29.51C73.2958 29.47 73.3358 29.42 73.3758 29.36C73.4158 29.3 73.5858 29.25 73.8858 29.21C73.9858 29.17 74.0858 29.16 74.1858 29.18C74.2858 29.18 74.3858 29.18 74.4858 29.18C74.5858 29.2 74.6858 29.22 74.7858 29.24C74.9058 29.26 75.0158 29.29 75.1158 29.33C75.2558 29.39 75.3858 29.44 75.5058 29.48C75.6458 29.52 75.7758 29.59 75.8958 29.69C76.0158 29.79 76.1458 29.94 76.2858 30.14C76.4458 30.34 76.6258 30.65 76.8258 31.07C77.1458 31.67 77.2758 32.27 77.2158 32.87C77.1558 33.63 76.9658 34.26 76.6458 34.76C76.3258 35.26 75.8558 35.77 75.2358 36.29Z" fill="#1A1A1A"/>
</g>
<defs>
<clipPath id="clip0_196_5">
<rect width="85" height="50" fill="white"/>
</clipPath>
</defs>
</svg>
