<svg width="114" height="50" viewBox="0 0 114 50" fill="none" xmlns="http://www.w3.org/2000/svg">
<path d="M4.59 21.26C4.79 21.06 4.98 20.88 5.16 20.72C5.34 20.56 5.53 20.41 5.73 20.27L5.25 20.51C4.83 20.73 4.35 20.95 3.81 21.17C3.29 21.37 2.73 21.46 2.13 21.44C1.91 21.42 1.68 21.35 1.44 21.23C1.22 21.11 1.11 20.93 1.11 20.69V20.63C1.21 20.45 1.35 20.25 1.53 20.03C1.71 19.81 1.94 19.65 2.22 19.55C2.6 19.39 3.05 19.2 3.57 18.98C4.09 18.76 4.53 18.59 4.89 18.47C5.59 18.21 6.22 17.93 6.78 17.63C7.34 17.33 7.96 17.05 8.64 16.79C8.96 16.67 9.27 16.53 9.57 16.37C9.87 16.19 10.17 16.02 10.47 15.86L10.56 15.77C10.72 15.71 10.89 15.63 11.07 15.53C11.27 15.43 11.44 15.33 11.58 15.23C11.74 15.15 11.94 15.06 12.18 14.96C12.44 14.86 12.65 14.78 12.81 14.72C12.99 14.66 13.17 14.64 13.35 14.66C13.55 14.66 13.74 14.69 13.92 14.75C14.1 14.79 14.25 14.85 14.37 14.93C14.49 15.01 14.56 15.09 14.58 15.17C14.66 15.57 14.58 15.88 14.34 16.1C14.12 16.32 13.87 16.5 13.59 16.64C12.43 17.16 11.48 17.69 10.74 18.23C10.02 18.77 9.4 19.23 8.88 19.61C8.34 20.01 7.88 20.37 7.5 20.69C7.14 20.99 6.84 21.28 6.6 21.56C6.36 21.84 6.18 22.12 6.06 22.4C5.96 22.68 5.9 22.99 5.88 23.33C5.82 24.81 6.46 25.56 7.8 25.58C8.18 25.6 8.55 25.55 8.91 25.43C9.27 25.29 9.59 25.11 9.87 24.89C10.15 24.65 10.39 24.37 10.59 24.05C10.79 23.73 10.93 23.39 11.01 23.03C11.13 22.35 11.14 21.75 11.04 21.23C10.94 20.71 10.74 20.37 10.44 20.21C10.38 20.19 10.36 20.12 10.38 20C10.42 19.86 10.47 19.73 10.53 19.61C10.61 19.47 10.7 19.34 10.8 19.22C10.9 19.1 10.98 19.04 11.04 19.04C11.38 19 11.75 19.1 12.15 19.34C12.57 19.58 12.86 19.9 13.02 20.3C13.12 20.58 13.22 20.95 13.32 21.41C13.44 21.87 13.49 22.39 13.47 22.97C13.43 23.63 13.3 24.16 13.08 24.56C12.86 24.96 12.64 25.3 12.42 25.58C11.88 26.16 11.23 26.63 10.47 26.99C9.71 27.35 8.82 27.51 7.8 27.47C7.2 27.45 6.63 27.36 6.09 27.2C5.55 27.02 5.07 26.78 4.65 26.48C4.25 26.16 3.94 25.79 3.72 25.37C3.5 24.93 3.4 24.43 3.42 23.87C3.44 23.23 3.55 22.72 3.75 22.34C3.97 21.96 4.25 21.6 4.59 21.26ZM23.49 18.29C23.63 18.21 23.77 18.05 23.91 17.81L24.24 17.45L24.51 17.27L25.05 16.79C25.07 16.75 25.09 16.73 25.11 16.73C25.15 16.71 25.18 16.69 25.2 16.67L25.32 16.58C25.38 16.56 25.44 16.52 25.5 16.46C25.56 16.4 25.62 16.33 25.68 16.25C25.78 16.15 25.88 16.05 25.98 15.95C26.1 15.83 26.26 15.72 26.46 15.62C26.52 15.54 26.64 15.49 26.82 15.47C27.02 15.45 27.17 15.45 27.27 15.47C27.47 15.47 27.67 15.61 27.87 15.89C28.09 16.17 28.2 16.41 28.2 16.61C28.14 16.99 27.95 17.4 27.63 17.84C27.33 18.28 26.98 18.57 26.58 18.71C26.54 18.73 26.47 18.76 26.37 18.8C26.29 18.84 26.2 18.89 26.1 18.95C26 19.01 25.91 19.08 25.83 19.16C25.77 19.22 25.74 19.28 25.74 19.34C25.64 19.42 25.52 19.5 25.38 19.58C25.26 19.64 25.15 19.7 25.05 19.76C24.97 19.8 24.83 19.89 24.63 20.03C24.43 20.15 24.32 20.24 24.3 20.3C24.18 20.5 24.04 20.67 23.88 20.81C23.74 20.95 23.59 21.07 23.43 21.17C23.31 21.27 23.2 21.37 23.1 21.47C23 21.55 22.9 21.65 22.8 21.77C22.76 21.81 22.71 21.84 22.65 21.86C22.61 21.88 22.57 21.91 22.53 21.95C22.41 22.05 22.3 22.14 22.2 22.22C22.1 22.28 22.03 22.35 21.99 22.43C21.83 22.65 21.6 22.81 21.3 22.91C21.26 22.97 21.19 23.03 21.09 23.09C20.99 23.15 20.89 23.21 20.79 23.27L20.19 23.69L20.04 24.14C19.86 24.42 19.64 24.64 19.38 24.8C19.14 24.96 18.84 25.03 18.48 25.01C18.42 25.01 18.33 24.96 18.21 24.86C18.11 24.76 18.01 24.64 17.91 24.5C17.81 24.34 17.73 24.17 17.67 23.99C17.63 23.79 17.63 23.6 17.67 23.42C17.67 23.3 17.7 23.2 17.76 23.12C17.82 23.04 17.89 22.95 17.97 22.85C18.11 22.69 18.24 22.51 18.36 22.31C18.48 22.09 18.55 21.72 18.57 21.2C18.59 20.96 18.61 20.71 18.63 20.45C18.67 20.19 18.71 19.94 18.75 19.7L18.87 18.86C18.87 18.7 18.86 18.53 18.84 18.35C18.82 18.15 18.79 17.94 18.75 17.72C18.73 17.5 18.7 17.32 18.66 17.18C18.64 17.02 18.64 16.87 18.66 16.73V16.52L18.75 16.1L18.78 15.62L18.66 15.29V15.2L18.63 15.17L18.72 14.69C18.76 14.53 18.78 14.4 18.78 14.3L18.66 13.31L18.42 12.95C18.36 12.85 18.3 12.75 18.24 12.65C18.2 12.53 18.16 12.44 18.12 12.38L17.91 12.08L17.85 12.02C17.69 11.84 17.53 11.63 17.37 11.39C17.23 11.13 17.17 10.88 17.19 10.64C17.19 10.32 17.31 10.06 17.55 9.86C17.81 9.66 18.08 9.56 18.36 9.56C18.66 9.58 18.97 9.66 19.29 9.8C19.61 9.94 19.82 10.15 19.92 10.43C20 10.55 20.09 10.69 20.19 10.85C20.29 10.99 20.4 11.14 20.52 11.3C20.6 11.38 20.65 11.44 20.67 11.48L20.79 11.78L20.88 12.11C21.04 12.33 21.15 12.51 21.21 12.65C21.27 12.77 21.33 12.92 21.39 13.1C21.43 13.16 21.45 13.23 21.45 13.31C21.45 13.37 21.47 13.43 21.51 13.49C21.57 13.65 21.62 13.8 21.66 13.94C21.7 14.06 21.71 14.19 21.69 14.33L21.66 15.2V15.59C21.66 15.75 21.66 15.9 21.66 16.04C21.66 16.16 21.65 16.29 21.63 16.43L21.33 19.1C21.29 19.56 21.25 19.9 21.21 20.12C21.17 20.32 21.13 20.55 21.09 20.81C21.17 20.73 21.23 20.66 21.27 20.6C21.33 20.52 21.37 20.46 21.39 20.42L21.78 19.94C21.82 19.86 21.92 19.74 22.08 19.58C22.26 19.42 22.46 19.25 22.68 19.07C22.78 18.99 22.87 18.91 22.95 18.83C23.05 18.75 23.13 18.68 23.19 18.62L23.49 18.29ZM17.07 38.54C17.03 38.5 16.98 38.45 16.92 38.39C16.88 38.33 16.85 38.28 16.83 38.24L16.74 37.91V37.85C16.74 37.67 16.77 37.47 16.83 37.25C16.87 37.05 16.89 36.91 16.89 36.83C16.93 36.61 16.96 36.35 16.98 36.05C17.02 35.75 17.05 35.44 17.07 35.12C17.11 34.82 17.14 34.52 17.16 34.22C17.2 33.9 17.22 33.63 17.22 33.41C17.22 33.31 17.22 33.2 17.22 33.08C17.22 32.96 17.21 32.85 17.19 32.75L17.13 32.27V31.37L17.19 30.95L17.16 29.78C17.16 29.72 17.16 29.66 17.16 29.6C17.18 29.52 17.18 29.44 17.16 29.36C17.14 29.28 17.12 29.21 17.1 29.15C17.08 29.07 17.08 29 17.1 28.94L16.5 29.33L16.47 29.42C16.33 29.56 16.14 29.7 15.9 29.84C15.68 29.96 15.44 30.08 15.18 30.2C14.92 30.3 14.67 30.39 14.43 30.47C14.19 30.55 13.99 30.62 13.83 30.68C13.73 30.72 13.65 30.77 13.59 30.83C13.53 30.87 13.47 30.91 13.41 30.95L13.17 31.13C12.85 31.29 12.42 31.49 11.88 31.73C11.36 31.97 10.82 32.2 10.26 32.42C9.7 32.64 9.18 32.83 8.7 32.99C8.22 33.15 7.88 33.22 7.68 33.2C7.52 33.18 7.33 33.06 7.11 32.84C6.89 32.6 6.79 32.38 6.81 32.18C6.83 32.04 6.89 31.9 6.99 31.76C7.09 31.62 7.21 31.5 7.35 31.4C7.49 31.3 7.64 31.22 7.8 31.16C7.96 31.08 8.1 31.03 8.22 31.01V30.98L9.09 30.56L9.33 30.44L11.19 29.57L11.46 29.54C11.56 29.44 11.65 29.36 11.73 29.3C11.83 29.24 11.93 29.18 12.03 29.12L12.15 29.06L12.99 28.76L13.41 28.64C13.49 28.5 13.76 28.32 14.22 28.1C14.68 27.88 15.15 27.67 15.63 27.47C15.91 27.35 16.16 27.24 16.38 27.14C16.62 27.04 16.76 26.97 16.8 26.93L17.16 26.78L17.25 26.72L17.37 26.6H17.46L17.82 26.45C17.92 26.39 18.02 26.34 18.12 26.3C18.24 26.26 18.38 26.25 18.54 26.27C18.88 26.29 19.21 26.41 19.53 26.63C19.85 26.85 20 27.16 19.98 27.56C19.98 27.68 19.97 27.8 19.95 27.92C19.93 28.04 19.91 28.16 19.89 28.28L19.8 28.97L19.83 29.24L19.89 29.48C19.91 29.56 19.92 29.72 19.92 29.96C19.94 30.2 19.95 30.47 19.95 30.77C19.95 31.05 19.94 31.32 19.92 31.58C19.92 31.84 19.92 32.02 19.92 32.12C19.92 32.36 19.9 32.74 19.86 33.26C19.84 33.76 19.8 34.29 19.74 34.85C19.7 35.41 19.64 35.93 19.56 36.41C19.48 36.89 19.37 37.23 19.23 37.43L18.93 37.85L18.57 38.36C18.49 38.5 18.32 38.58 18.06 38.6C17.8 38.62 17.6 38.63 17.46 38.63L17.13 38.6L17.07 38.54ZM3.51 13.22C3.59 13.22 3.78 13.2 4.08 13.16C4.38 13.12 4.71 13.07 5.07 13.01C5.43 12.95 5.78 12.89 6.12 12.83C6.48 12.75 6.77 12.67 6.99 12.59L8.49 12.08C8.57 12.04 8.68 12 8.82 11.96C8.98 11.92 9.14 11.89 9.3 11.87C9.46 11.85 9.61 11.85 9.75 11.87C9.91 11.87 10.03 11.9 10.11 11.96C10.27 12.04 10.42 12.15 10.56 12.29C10.72 12.43 10.76 12.66 10.68 12.98C10.64 13.18 10.48 13.4 10.2 13.64C9.92 13.86 9.58 14.05 9.18 14.21C9.08 14.25 8.94 14.31 8.76 14.39C8.58 14.47 8.41 14.51 8.25 14.51C7.97 14.47 7.61 14.52 7.17 14.66C6.75 14.78 6.37 14.91 6.03 15.05C5.93 15.09 5.76 15.14 5.52 15.2C5.3 15.26 5.07 15.32 4.83 15.38C4.59 15.42 4.37 15.46 4.17 15.5C3.97 15.54 3.84 15.56 3.78 15.56C3.68 15.58 3.57 15.56 3.45 15.5C3.33 15.42 3.21 15.32 3.09 15.2C2.99 15.06 2.9 14.91 2.82 14.75C2.74 14.57 2.69 14.39 2.67 14.21C2.63 14.03 2.68 13.82 2.82 13.58C2.98 13.34 3.21 13.22 3.51 13.22ZM52.0929 19.1C52.0529 19.48 52.0229 19.79 52.0029 20.03C51.9829 20.25 51.9529 20.45 51.9129 20.63C51.8929 20.79 51.8629 20.96 51.8229 21.14C51.7829 21.32 51.7329 21.56 51.6729 21.86C51.5529 22.14 51.4329 22.48 51.3129 22.88C51.2129 23.26 51.1129 23.49 51.0129 23.57L50.9829 23.78L50.8029 24.29C50.4429 24.89 49.9229 25.18 49.2429 25.16C49.1829 25.16 49.0929 25.11 48.9729 25.01C48.8729 24.91 48.7729 24.79 48.6729 24.65C48.5729 24.49 48.4929 24.32 48.4329 24.14C48.3929 23.96 48.3929 23.78 48.4329 23.6C48.4329 23.42 48.4729 23.29 48.5529 23.21C48.6529 23.11 48.7529 23 48.8529 22.88C48.9729 22.74 49.0729 22.57 49.1529 22.37C49.2529 22.15 49.3129 21.84 49.3329 21.44C49.3329 21.22 49.3429 21 49.3629 20.78C49.4029 20.56 49.4429 20.32 49.4829 20.06C49.2229 20.12 48.9829 20.22 48.7629 20.36C48.3229 20.58 47.8629 20.77 47.3829 20.93C47.1029 21.03 46.8329 21.12 46.5729 21.2C46.3329 21.28 46.1129 21.4 45.9129 21.56L45.7329 21.71L45.2229 21.89L45.3129 21.98C45.5329 22.34 45.6129 22.68 45.5529 23C45.4929 23.3 45.3729 23.51 45.1929 23.63C45.0729 23.73 44.9629 23.81 44.8629 23.87C44.7629 23.91 44.6629 23.96 44.5629 24.02C44.4629 24.06 44.3629 24.12 44.2629 24.2C44.1629 24.26 44.0329 24.34 43.8729 24.44C43.6529 24.6 43.3529 24.8 42.9729 25.04C42.6129 25.28 42.2329 25.54 41.8329 25.82C41.4329 26.08 41.0429 26.34 40.6629 26.6C40.2829 26.84 39.9629 27.05 39.7029 27.23L39.4929 27.35L39.0129 27.65C38.7729 27.75 38.5529 27.86 38.3529 27.98C38.1729 28.08 37.9729 28.19 37.7529 28.31C37.5929 28.41 37.4429 28.5 37.3029 28.58C37.1629 28.64 37.0129 28.7 36.8529 28.76L36.8229 28.79C36.5029 29.11 36.1529 29.33 35.7729 29.45C35.3929 29.57 34.9729 29.62 34.5129 29.6C34.3929 29.58 34.2329 29.53 34.0329 29.45C33.8529 29.35 33.6629 29.23 33.4629 29.09C33.2829 28.95 33.1229 28.81 32.9829 28.67C32.8629 28.53 32.8029 28.4 32.8029 28.28C32.8029 28.24 32.8229 28.2 32.8629 28.16C32.9229 28.1 32.9729 28.05 33.0129 28.01C33.3729 27.67 33.7129 27.32 34.0329 26.96C34.3729 26.58 34.7129 26.21 35.0529 25.85C35.3129 25.53 35.5829 25.22 35.8629 24.92C36.1429 24.6 36.4529 24.28 36.7929 23.96C36.8529 23.88 36.9629 23.76 37.1229 23.6C37.2829 23.42 37.4629 23.22 37.6629 23C37.8629 22.78 38.0729 22.55 38.2929 22.31C38.5329 22.05 38.7729 21.81 39.0129 21.59V21.53C38.6129 21.79 38.1929 22.06 37.7529 22.34C37.3329 22.62 36.9329 22.88 36.5529 23.12C36.1929 23.36 35.8829 23.57 35.6229 23.75C35.3829 23.93 35.2329 24.04 35.1729 24.08L34.4529 24.44C34.0929 24.64 33.7029 24.73 33.2829 24.71C33.0429 24.69 32.8029 24.65 32.5629 24.59C32.3429 24.51 32.2429 24.32 32.2629 24.02C32.2629 23.86 32.3629 23.67 32.5629 23.45C32.7629 23.21 32.9729 23.01 33.1929 22.85C33.3129 22.71 33.4529 22.58 33.6129 22.46C33.7929 22.32 33.9629 22.17 34.1229 22.01C34.4429 21.73 34.7229 21.47 34.9629 21.23C35.2229 20.97 35.4029 20.79 35.5029 20.69C35.5829 20.53 35.6829 20.39 35.8029 20.27C35.9429 20.15 36.0929 20.03 36.2529 19.91C36.4129 19.79 36.5529 19.66 36.6729 19.52C36.8129 19.36 36.9629 19.2 37.1229 19.04C37.1829 18.98 37.2829 18.86 37.4229 18.68C37.5829 18.48 37.7529 18.27 37.9329 18.05C38.1329 17.81 38.3229 17.58 38.5029 17.36C38.7029 17.14 38.8629 16.96 38.9829 16.82C38.9429 16.84 38.9129 16.85 38.8929 16.85C38.8729 16.85 38.8529 16.86 38.8329 16.88C38.5929 17.02 38.3229 17.18 38.0229 17.36C37.7429 17.52 37.4729 17.68 37.2129 17.84C36.9529 17.98 36.7229 18.11 36.5229 18.23C36.3229 18.35 36.1929 18.44 36.1329 18.5C35.9929 18.6 35.7229 18.79 35.3229 19.07C34.9229 19.33 34.4929 19.61 34.0329 19.91C33.5729 20.19 33.1329 20.46 32.7129 20.72C32.2929 20.96 32.0129 21.11 31.8729 21.17L31.6929 21.26C31.3729 21.42 31.0729 21.49 30.7929 21.47C30.5129 21.47 30.2729 21.4 30.0729 21.26C29.8929 21.1 29.8129 20.88 29.8329 20.6C29.8329 20.38 29.8629 20.18 29.9229 20C30.0029 19.8 30.1229 19.62 30.2829 19.46C30.3029 19.42 30.5029 19.28 30.8829 19.04C31.2829 18.8 31.7229 18.53 32.2029 18.23C32.7029 17.93 33.1929 17.65 33.6729 17.39C34.1529 17.11 34.5029 16.91 34.7229 16.79L35.1429 16.46C35.6629 16.24 36.1229 16.04 36.5229 15.86C36.9429 15.68 37.3829 15.42 37.8429 15.08L39.8529 13.97C39.9129 13.95 39.9929 13.93 40.0929 13.91C40.2129 13.87 40.3329 13.84 40.4529 13.82C40.5929 13.8 40.7229 13.79 40.8429 13.79C40.9829 13.77 41.0829 13.76 41.1429 13.76H41.4729C41.5729 13.82 41.6629 13.93 41.7429 14.09C41.8229 14.23 41.8929 14.4 41.9529 14.6C42.0129 14.78 42.0629 14.97 42.1029 15.17C42.1429 15.35 42.1629 15.5 42.1629 15.62C42.1629 15.7 42.0829 15.83 41.9229 16.01C41.7629 16.17 41.6129 16.31 41.4729 16.43L41.2629 16.64L41.0829 16.88L40.3029 17.93L40.0329 18.26C39.7329 18.6 39.5129 18.86 39.3729 19.04C39.2329 19.22 39.0629 19.44 38.8629 19.7L38.2029 20.45C38.3029 20.41 38.4029 20.35 38.5029 20.27C38.6029 20.21 38.7029 20.15 38.8029 20.09C38.9029 20.03 39.0029 19.96 39.1029 19.88C39.3829 19.66 39.6529 19.47 39.9129 19.31C40.1929 19.13 40.4829 18.96 40.7829 18.8C40.9429 18.68 41.1129 18.57 41.2929 18.47C41.4929 18.37 41.6829 18.32 41.8629 18.32C42.2229 18.34 42.5229 18.41 42.7629 18.53C43.0029 18.63 43.1229 18.78 43.1229 18.98C43.1229 19.08 43.0929 19.27 43.0329 19.55C42.9729 19.83 42.8829 20.05 42.7629 20.21C42.5429 20.47 42.3329 20.71 42.1329 20.93C41.9529 21.13 41.7629 21.35 41.5629 21.59C41.3829 21.77 41.2129 21.97 41.0529 22.19C40.8929 22.41 40.7329 22.6 40.5729 22.76L39.9729 23.36L39.8229 23.6L39.1029 24.32C38.9229 24.48 38.7729 24.63 38.6529 24.77C38.5929 24.83 38.5329 24.89 38.4729 24.95C38.4329 25.01 38.3729 25.07 38.2929 25.13L37.6329 25.79L37.2429 26.24L37.0029 26.48C37.0829 26.42 37.1629 26.37 37.2429 26.33C37.3229 26.29 37.4029 26.24 37.4829 26.18C37.6429 26.08 37.8329 25.95 38.0529 25.79C38.2729 25.63 38.5029 25.47 38.7429 25.31C38.9829 25.15 39.2029 24.99 39.4029 24.83C39.6229 24.67 39.8129 24.53 39.9729 24.41C40.0329 24.37 40.0929 24.34 40.1529 24.32C40.2329 24.28 40.3029 24.24 40.3629 24.2C40.4229 24.16 40.4829 24.13 40.5429 24.11C40.6029 24.09 40.6629 24.05 40.7229 23.99C40.8629 23.87 41.0729 23.71 41.3529 23.51C41.6529 23.29 41.9629 23.08 42.2829 22.88C42.6229 22.66 42.9329 22.47 43.2129 22.31C43.5129 22.13 43.7229 22 43.8429 21.92C43.6429 21.76 43.4629 21.59 43.3029 21.41C43.1429 21.23 43.0729 21.04 43.0929 20.84C43.0929 20.76 43.1029 20.71 43.1229 20.69C43.1229 20.67 43.1329 20.65 43.1529 20.63V20.51C43.2529 20.27 43.3329 20.1 43.3929 20C43.4729 19.9 43.5629 19.8 43.6629 19.7L43.9029 19.43L44.1429 19.22L44.5029 18.8L45.6129 17.66L46.1529 17.03L46.8129 16.19C46.5929 16.27 46.3929 16.35 46.2129 16.43C46.0329 16.49 45.7929 16.56 45.4929 16.64C45.2129 16.72 44.9529 16.8 44.7129 16.88C44.4729 16.96 44.2129 16.99 43.9329 16.97C43.6129 16.97 43.3529 16.89 43.1529 16.73C42.9529 16.55 42.8529 16.28 42.8529 15.92C42.8729 15.64 42.9529 15.43 43.0929 15.29C43.2329 15.15 43.4029 15.06 43.6029 15.02C43.8029 14.98 44.0229 14.96 44.2629 14.96C44.5029 14.96 44.7229 14.95 44.9229 14.93C45.1429 14.93 45.3529 14.9 45.5529 14.84C45.7729 14.76 45.9429 14.7 46.0629 14.66C46.3429 14.54 46.5529 14.43 46.6929 14.33C46.8329 14.23 46.9529 14.14 47.0529 14.06C47.1729 13.96 47.3129 13.88 47.4729 13.82C47.6329 13.74 47.8629 13.67 48.1629 13.61C48.3229 13.59 48.4729 13.62 48.6129 13.7C48.7529 13.78 48.8629 13.89 48.9429 14.03C49.0429 14.15 49.1129 14.29 49.1529 14.45C49.1929 14.59 49.2029 14.71 49.1829 14.81C49.1429 14.93 49.0629 15.06 48.9429 15.2C48.8429 15.34 48.7229 15.46 48.5829 15.56C48.3029 15.9 47.9629 16.32 47.5629 16.82C47.1829 17.3 46.8129 17.78 46.4529 18.26C46.0929 18.72 45.7929 19.12 45.5529 19.46C45.3329 19.8 45.2529 19.98 45.3129 20L45.8529 19.79C46.1129 19.69 46.4229 19.56 46.7829 19.4C47.1629 19.24 47.5129 19.08 47.8329 18.92C48.0529 18.82 48.3029 18.65 48.5829 18.41C48.8829 18.17 49.1829 17.91 49.4829 17.63C49.4629 17.47 49.4429 17.31 49.4229 17.15C49.4029 16.97 49.4029 16.82 49.4229 16.7V16.49L49.5129 16.07C49.5129 16.03 49.5129 16 49.5129 15.98C49.5329 15.94 49.5429 15.9 49.5429 15.86V15.62L49.4229 15.29V15.2L49.3929 15.17C49.4129 15.01 49.4429 14.87 49.4829 14.75C49.5229 14.61 49.5429 14.47 49.5429 14.33L49.4229 13.37L49.1829 13.04C49.1429 12.98 49.1029 12.91 49.0629 12.83C49.0229 12.77 48.9829 12.71 48.9429 12.65C48.9229 12.59 48.9029 12.54 48.8829 12.5L48.6729 12.2L48.6129 12.14C48.4729 11.96 48.3229 11.75 48.1629 11.51C48.0029 11.27 47.9229 11.03 47.9229 10.79C47.9429 10.45 48.0729 10.19 48.3129 10.01C48.5729 9.81 48.8429 9.71 49.1229 9.71C49.4229 9.73 49.7329 9.81 50.0529 9.95C50.3729 10.09 50.5829 10.3 50.6829 10.58C50.7629 10.72 50.8729 10.88 51.0129 11.06C51.1529 11.24 51.2929 11.41 51.4329 11.57L51.5529 11.9L51.6429 12.2C51.8629 12.46 51.9929 12.68 52.0329 12.86C52.0929 13.04 52.1729 13.27 52.2729 13.55C52.4129 13.87 52.4729 14.14 52.4529 14.36C52.4529 14.5 52.4529 14.64 52.4529 14.78C52.4529 14.9 52.4429 15.04 52.4229 15.2C52.4229 15.4 52.4229 15.6 52.4229 15.8C52.4229 16 52.4129 16.2 52.3929 16.4L52.0929 19.1ZM47.8329 38.69C47.7929 38.65 47.7429 38.6 47.6829 38.54C47.6429 38.48 47.6129 38.43 47.5929 38.39L47.5029 38.06V38C47.5029 37.82 47.5329 37.62 47.5929 37.4C47.6329 37.2 47.6529 37.06 47.6529 36.98C47.6929 36.76 47.7229 36.5 47.7429 36.2C47.7829 35.9 47.8129 35.59 47.8329 35.27C47.8729 34.97 47.9029 34.67 47.9229 34.37C47.9629 34.05 47.9829 33.78 47.9829 33.56C47.9829 33.46 47.9829 33.35 47.9829 33.23C47.9829 33.11 47.9729 33 47.9529 32.9L47.8929 32.42V31.52L47.9529 31.1L47.9229 29.93C47.9229 29.87 47.9229 29.81 47.9229 29.75C47.9429 29.67 47.9429 29.59 47.9229 29.51C47.9029 29.43 47.8829 29.36 47.8629 29.3C47.8429 29.22 47.8429 29.15 47.8629 29.09L47.2629 29.48L47.2329 29.57C47.0929 29.71 46.9029 29.85 46.6629 29.99C46.4429 30.11 46.2029 30.23 45.9429 30.35C45.6829 30.45 45.4329 30.54 45.1929 30.62C44.9529 30.7 44.7529 30.77 44.5929 30.83C44.4929 30.87 44.4129 30.92 44.3529 30.98C44.2929 31.02 44.2329 31.06 44.1729 31.1L43.9329 31.28C43.6129 31.44 43.1829 31.64 42.6429 31.88C42.1229 32.12 41.5829 32.35 41.0229 32.57C40.4629 32.79 39.9429 32.98 39.4629 33.14C38.9829 33.3 38.6429 33.37 38.4429 33.35C38.2829 33.33 38.0929 33.21 37.8729 32.99C37.6529 32.75 37.5529 32.53 37.5729 32.33C37.6129 32.03 37.7929 31.77 38.1129 31.55C38.4329 31.33 38.7229 31.2 38.9829 31.16V31.13L39.8529 30.71L40.0929 30.59L41.9529 29.72L42.2229 29.69C42.3229 29.59 42.4129 29.51 42.4929 29.45C42.5929 29.39 42.6929 29.33 42.7929 29.27L42.9129 29.21L43.7529 28.91C43.8329 28.89 43.9029 28.87 43.9629 28.85C44.0229 28.83 44.0829 28.81 44.1429 28.79C44.2429 28.65 44.5229 28.47 44.9829 28.25C45.4429 28.03 45.9129 27.82 46.3929 27.62C46.6729 27.5 46.9229 27.39 47.1429 27.29C47.3829 27.19 47.5229 27.12 47.5629 27.08L47.9229 26.93L48.0129 26.87L48.1329 26.75H48.2229L48.5829 26.6C48.6829 26.54 48.7829 26.49 48.8829 26.45C49.0029 26.41 49.1429 26.4 49.3029 26.42C49.6429 26.44 49.9729 26.56 50.2929 26.78C50.6129 27 50.7629 27.31 50.7429 27.71C50.7429 27.83 50.7329 27.95 50.7129 28.07C50.6929 28.19 50.6729 28.31 50.6529 28.43C50.6329 28.53 50.6129 28.64 50.5929 28.76C50.5729 28.88 50.5629 29 50.5629 29.12L50.5929 29.39L50.6529 29.63C50.6729 29.71 50.6829 29.87 50.6829 30.11C50.7029 30.35 50.7129 30.62 50.7129 30.92C50.7129 31.2 50.7029 31.47 50.6829 31.73C50.6829 31.97 50.6829 32.14 50.6829 32.24C50.6629 32.48 50.6429 32.86 50.6229 33.38C50.6029 33.9 50.5629 34.44 50.5029 35C50.4629 35.54 50.4029 36.05 50.3229 36.53C50.2429 37.03 50.1329 37.38 49.9929 37.58L49.6929 38L49.3329 38.51C49.2529 38.65 49.0829 38.73 48.8229 38.75C48.5629 38.77 48.3629 38.78 48.2229 38.78L47.8929 38.75L47.8329 38.69ZM73.5858 37.4C73.5058 37.4 73.4058 37.35 73.2858 37.25C73.1858 37.15 73.0858 37.02 72.9858 36.86C72.9058 36.72 72.8358 36.55 72.7758 36.35C72.7158 36.17 72.7058 35.99 72.7458 35.81C72.7658 35.63 72.8258 35.45 72.9258 35.27C73.0258 35.09 73.1258 34.88 73.2258 34.64C73.3458 34.4 73.4558 34.13 73.5558 33.83C73.6558 33.53 73.7158 33.18 73.7358 32.78C73.7558 32.4 73.8358 32.04 73.9758 31.7C74.1358 31.34 74.2358 30.96 74.2758 30.56C74.3758 29.88 74.4758 29.27 74.5758 28.73C74.6758 28.17 74.7458 27.53 74.7858 26.81L74.9958 25.55L75.1158 25.22V24.77L75.0858 24.74C75.0858 24.68 75.0758 24.62 75.0558 24.56C75.0558 24.5 75.0558 24.45 75.0558 24.41L75.1458 24.14L75.1758 23.42L75.2058 23.15L75.2358 22.7L75.4758 19.7C75.5358 19.62 75.5658 19.5 75.5658 19.34C75.5858 19.08 75.5458 18.83 75.4458 18.59C75.3658 18.33 75.3258 18.07 75.3258 17.81L75.3558 17.6L75.4458 17.18L75.4758 16.7L75.3558 16.37V16.31L75.3258 16.28C75.3258 16.12 75.3458 15.97 75.3858 15.83C75.4458 15.69 75.4758 15.55 75.4758 15.41L75.3258 14.45L75.0858 14.18C75.0458 14.12 75.0058 14.05 74.9658 13.97C74.9258 13.91 74.8958 13.85 74.8758 13.79C74.8558 13.71 74.8258 13.65 74.7858 13.61L74.5758 13.31L74.5458 13.25C74.4058 13.09 74.2558 12.88 74.0958 12.62C73.9358 12.36 73.8558 12.12 73.8558 11.9C73.8758 11.56 74.0058 11.29 74.2458 11.09C74.4858 10.89 74.7458 10.8 75.0258 10.82C75.3258 10.82 75.6358 10.9 75.9558 11.06C76.2758 11.2 76.4858 11.41 76.5858 11.69C76.6858 11.85 76.8058 12.02 76.9458 12.2C77.0858 12.36 77.2058 12.52 77.3058 12.68L77.4858 13.04L77.5758 13.34C77.7958 13.56 77.9258 13.77 77.9658 13.97C78.0258 14.15 78.1058 14.38 78.2058 14.66C78.3258 14.96 78.3858 15.23 78.3858 15.47L78.3258 17.51L78.2058 19.94L78.1458 21.08C78.1458 21.34 78.1258 21.6 78.0858 21.86C78.0458 22.12 77.9958 22.38 77.9358 22.64L77.7858 23.18C77.7858 23.34 77.7758 23.48 77.7558 23.6C77.7358 23.72 77.7258 23.86 77.7258 24.02V24.05C77.8058 24.01 77.9158 23.92 78.0558 23.78C78.1158 23.72 78.2258 23.65 78.3858 23.57V23.51L79.2558 22.67C79.3958 22.55 79.5458 22.44 79.7058 22.34C79.8658 22.24 80.0258 22.14 80.1858 22.04V22.01L80.3058 21.74L80.8158 21.23C81.1958 20.89 81.5558 20.58 81.8958 20.3C82.1758 20.06 82.4658 19.83 82.7658 19.61C83.0658 19.39 83.2958 19.24 83.4558 19.16L83.7558 18.86C83.8358 18.78 83.9558 18.74 84.1158 18.74C84.2958 18.72 84.4358 18.71 84.5358 18.71C84.7358 18.71 84.9458 18.83 85.1658 19.07C85.4058 19.31 85.5158 19.53 85.4958 19.73V19.79C85.4158 20.19 85.2858 20.52 85.1058 20.78C84.9458 21.02 84.7558 21.23 84.5358 21.41C84.3158 21.57 84.0758 21.72 83.8158 21.86C83.5758 22 83.3358 22.16 83.0958 22.34L83.0658 22.43C82.8258 22.63 82.5258 22.8 82.1658 22.94L81.6258 23.36V23.39L81.2658 23.75L81.1758 23.81L80.8458 24.11C80.6458 24.23 80.4758 24.39 80.3358 24.59C80.1958 24.79 80.0158 24.95 79.7958 25.07L79.6458 25.13C79.5858 25.17 79.5058 25.24 79.4058 25.34C79.3058 25.44 79.1958 25.54 79.0758 25.64C78.9758 25.74 78.8758 25.83 78.7758 25.91C78.6958 25.99 78.6358 26.03 78.5958 26.03C78.5358 26.09 78.4858 26.17 78.4458 26.27C78.4258 26.35 78.3958 26.44 78.3558 26.54C78.2958 26.7 78.1658 26.86 77.9658 27.02C77.7658 27.18 77.6158 27.36 77.5158 27.56L77.2158 27.83V27.89C77.1758 28.15 77.1158 28.53 77.0358 29.03C76.9558 29.53 76.8558 30.05 76.7358 30.59C76.6358 31.13 76.5258 31.65 76.4058 32.15C76.2858 32.63 76.1658 32.98 76.0458 33.2C75.9858 33.34 75.9258 33.55 75.8658 33.83C75.8058 34.09 75.7458 34.37 75.6858 34.67C75.6258 34.95 75.5658 35.2 75.5058 35.42C75.4458 35.64 75.3858 35.77 75.3258 35.81V36.02L75.1158 36.53L75.1458 36.5C74.8058 37.1 74.2858 37.4 73.5858 37.4ZM59.7258 30.56C59.6058 30.72 59.4158 30.92 59.1558 31.16C58.9158 31.38 58.6458 31.61 58.3458 31.85C58.0658 32.07 57.7858 32.26 57.5058 32.42C57.2258 32.56 56.9958 32.63 56.8158 32.63C56.5558 32.61 56.3558 32.56 56.2158 32.48C56.0558 32.4 55.9758 32.21 55.9758 31.91C55.9958 31.67 56.0658 31.47 56.1858 31.31C56.3058 31.13 56.4458 30.97 56.6058 30.83C56.7858 30.67 56.9658 30.52 57.1458 30.38C57.3258 30.22 57.4758 30.06 57.5958 29.9L58.3458 29.15L58.7658 28.67C58.8658 28.53 58.9858 28.37 59.1258 28.19C59.2658 28.01 59.4158 27.83 59.5758 27.65C59.7358 27.47 59.8958 27.3 60.0558 27.14C60.2158 26.98 60.3758 26.85 60.5358 26.75L60.7458 26.42C61.1258 25.96 61.4858 25.51 61.8258 25.07C62.1658 24.63 62.5058 24.19 62.8458 23.75C63.1858 23.35 63.4858 22.95 63.7458 22.55C64.0258 22.15 64.3058 21.74 64.5858 21.32L65.1858 20.48L65.3358 20.12C65.9558 19.46 66.4558 18.73 66.8358 17.93C67.2358 17.11 67.6558 16.32 68.0958 15.56C68.2558 15.28 68.4658 15 68.7258 14.72C69.0058 14.44 69.3358 14.31 69.7158 14.33C69.8158 14.33 69.9258 14.34 70.0458 14.36C70.1658 14.38 70.2758 14.39 70.3758 14.39C70.6158 14.51 70.7858 14.68 70.8858 14.9C70.9858 15.1 71.0358 15.34 71.0358 15.62C71.0358 15.72 70.9458 15.94 70.7658 16.28C70.6058 16.6 70.3958 16.99 70.1358 17.45C69.8958 17.89 69.6258 18.37 69.3258 18.89C69.0258 19.39 68.7358 19.87 68.4558 20.33C68.1758 20.77 67.9158 21.17 67.6758 21.53C67.4558 21.87 67.2958 22.1 67.1958 22.22L67.1358 22.31C67.0358 22.51 66.9658 22.67 66.9258 22.79C66.8858 22.89 66.8458 23.02 66.8058 23.18C66.9658 23.28 67.1058 23.37 67.2258 23.45C67.3658 23.51 67.5558 23.56 67.7958 23.6C68.3158 23.76 68.8358 23.87 69.3558 23.93C69.8758 23.97 70.3958 24.05 70.9158 24.17C71.3558 24.27 71.7858 24.52 72.2058 24.92C72.6258 25.32 72.8258 25.76 72.8058 26.24V26.3C72.5458 26.52 72.3158 26.75 72.1158 26.99C71.9158 27.23 71.6258 27.35 71.2458 27.35C71.0658 27.33 70.8258 27.27 70.5258 27.17C70.2458 27.05 70.0258 26.95 69.8658 26.87C69.2658 26.67 68.6658 26.47 68.0658 26.27C67.4858 26.07 66.8758 25.92 66.2358 25.82C66.1158 25.78 65.9958 25.76 65.8758 25.76C65.7758 25.76 65.6558 25.74 65.5158 25.7L65.1258 25.58C64.9658 25.58 64.8058 25.66 64.6458 25.82C64.4858 25.96 64.3258 26.13 64.1658 26.33C64.0058 26.51 63.8558 26.69 63.7158 26.87C63.5758 27.03 63.4358 27.13 63.2958 27.17L63.0558 27.35C62.9758 27.43 62.8558 27.54 62.6958 27.68C62.5558 27.82 62.4058 27.97 62.2458 28.13C62.0858 28.29 61.9358 28.45 61.7958 28.61C61.6558 28.75 61.5558 28.87 61.4958 28.97C61.3558 29.13 61.2158 29.28 61.0758 29.42C60.9358 29.56 60.6858 29.77 60.3258 30.05L59.7258 30.56ZM103.779 25.04C105.039 24.12 106.179 23.16 107.199 22.16C108.219 21.16 109.209 20.15 110.169 19.13C109.789 19.35 109.499 19.51 109.299 19.61C109.119 19.69 109.009 19.75 108.969 19.79C108.749 19.95 108.539 20.1 108.339 20.24C108.139 20.36 107.899 20.53 107.619 20.75C107.339 20.95 107.039 21.15 106.719 21.35C106.399 21.55 106.069 21.74 105.729 21.92C105.409 22.08 105.079 22.21 104.739 22.31C104.399 22.41 104.069 22.45 103.749 22.43C103.609 22.43 103.439 22.26 103.239 21.92C103.039 21.58 102.979 21.11 103.059 20.51C103.059 20.43 103.069 20.31 103.089 20.15C103.129 19.99 103.169 19.83 103.209 19.67C103.249 19.49 103.279 19.32 103.299 19.16C103.339 18.98 103.369 18.84 103.389 18.74C103.409 18.46 103.409 18.15 103.389 17.81C103.369 17.45 103.359 17.13 103.359 16.85L103.389 15.77V15.44L103.419 14.18L103.269 13.19L103.059 12.89C103.019 12.83 102.979 12.76 102.939 12.68C102.899 12.62 102.859 12.56 102.819 12.5C102.799 12.44 102.769 12.39 102.729 12.35L102.549 12.02L102.489 11.96C102.329 11.8 102.169 11.6 102.009 11.36C101.869 11.12 101.799 10.88 101.799 10.64C101.819 10.3 101.949 10.03 102.189 9.83C102.449 9.63 102.719 9.54 102.999 9.56C103.299 9.58 103.609 9.66 103.929 9.8C104.249 9.94 104.459 10.15 104.559 10.43C104.639 10.57 104.749 10.73 104.889 10.91C105.029 11.07 105.169 11.24 105.309 11.42L105.429 11.75L105.519 12.05C105.739 12.29 105.869 12.5 105.909 12.68C105.969 12.86 106.049 13.1 106.149 13.4C106.289 13.72 106.349 13.99 106.329 14.21L106.299 15.35C106.299 15.55 106.299 15.75 106.299 15.95C106.299 16.15 106.289 16.35 106.269 16.55L105.759 18.71C105.719 18.93 105.669 19.11 105.609 19.25C105.549 19.37 105.479 19.53 105.399 19.73C105.499 19.69 105.629 19.63 105.789 19.55C105.949 19.47 106.039 19.4 106.059 19.34C106.259 19.22 106.429 19.12 106.569 19.04C106.709 18.94 106.839 18.85 106.959 18.77C107.099 18.67 107.239 18.58 107.379 18.5C107.519 18.4 107.679 18.28 107.859 18.14C108.079 17.96 108.269 17.84 108.429 17.78C108.609 17.7 108.809 17.58 109.029 17.42C109.189 17.32 109.339 17.21 109.479 17.09C109.639 16.95 109.789 16.83 109.929 16.73C110.089 16.63 110.239 16.51 110.379 16.37C110.519 16.21 110.749 16.04 111.069 15.86C111.149 15.78 111.309 15.7 111.549 15.62C111.789 15.52 111.959 15.48 112.059 15.5C112.179 15.5 112.309 15.57 112.449 15.71C112.589 15.85 112.719 16.03 112.839 16.25C112.959 16.45 113.059 16.67 113.139 16.91C113.219 17.13 113.259 17.32 113.259 17.48C113.219 17.94 113.069 18.39 112.809 18.83C112.549 19.25 112.119 19.74 111.519 20.3C111.459 20.36 111.269 20.53 110.949 20.81C110.629 21.07 110.239 21.4 109.779 21.8C109.319 22.18 108.799 22.62 108.219 23.12C107.659 23.6 107.089 24.1 106.509 24.62C106.269 24.86 106.009 25.1 105.729 25.34C105.449 25.58 105.199 25.81 104.979 26.03C104.659 26.31 104.389 26.53 104.169 26.69C103.949 26.85 103.819 26.95 103.779 26.99C103.459 27.21 103.169 27.41 102.909 27.59C102.649 27.77 102.379 27.97 102.099 28.19C101.859 28.39 101.609 28.59 101.349 28.79C101.089 28.99 100.789 29.2 100.449 29.42C100.149 29.66 99.9087 29.87 99.7287 30.05L98.8887 30.71L98.4087 31.31C98.1487 31.65 97.9487 32.03 97.8087 32.45C97.6887 32.87 97.6187 33.28 97.5987 33.68C97.5987 33.78 97.6087 33.92 97.6287 34.1C97.6487 34.28 97.6787 34.47 97.7187 34.67C97.7787 34.87 97.8387 35.05 97.8987 35.21C97.9787 35.39 98.0787 35.52 98.1987 35.6C98.3587 35.7 98.5587 35.77 98.7987 35.81C99.0387 35.85 99.2387 35.87 99.3987 35.87C99.7587 35.87 100.069 35.84 100.329 35.78C100.589 35.72 100.849 35.61 101.109 35.45C101.389 35.29 101.679 35.09 101.979 34.85C102.279 34.59 102.549 34.32 102.789 34.04C103.029 33.74 103.229 33.44 103.389 33.14C103.569 32.84 103.659 32.55 103.659 32.27C103.679 32.11 103.639 31.97 103.539 31.85C103.459 31.73 103.359 31.61 103.239 31.49C103.099 31.33 102.979 31.16 102.879 30.98C102.779 30.8 102.729 30.59 102.729 30.35C102.749 29.95 102.929 29.62 103.269 29.36C103.629 29.1 104.009 28.99 104.409 29.03C104.829 29.07 105.199 29.23 105.519 29.51C105.859 29.79 106.109 30.15 106.269 30.59C106.409 30.99 106.469 31.42 106.449 31.88C106.449 32.32 106.389 32.77 106.269 33.23C106.149 33.67 105.969 34.09 105.729 34.49C105.509 34.87 105.259 35.19 104.979 35.45C104.639 35.79 104.289 36.12 103.929 36.44C103.569 36.78 103.299 37.01 103.119 37.13C102.919 37.27 102.669 37.4 102.369 37.52C102.069 37.66 101.739 37.77 101.379 37.85C101.019 37.95 100.659 38.02 100.299 38.06C99.9387 38.12 99.5987 38.15 99.2787 38.15C98.8987 38.13 98.5987 38.07 98.3787 37.97C98.1587 37.89 97.9387 37.8 97.7187 37.7C97.6187 37.62 97.5087 37.57 97.3887 37.55C96.3287 37.21 95.5887 36.74 95.1687 36.14C94.7687 35.56 94.5887 34.73 94.6287 33.65C94.9287 32.31 95.4787 31.14 96.2787 30.14C97.0787 29.12 98.0887 28.34 99.3087 27.8C99.4887 27.72 99.6487 27.65 99.7887 27.59C99.9487 27.51 100.109 27.41 100.269 27.29C100.349 27.25 100.419 27.21 100.479 27.17C100.559 27.13 100.629 27.09 100.689 27.05C100.869 26.93 101.039 26.82 101.199 26.72C101.359 26.62 101.539 26.53 101.739 26.45C101.939 26.35 102.089 26.27 102.189 26.21C102.309 26.13 102.429 26.04 102.549 25.94L102.849 25.7L103.779 25.04ZM89.2287 20.96C89.6287 20.56 89.9887 20.24 90.3087 20L89.8887 20.21C89.4687 20.43 88.9987 20.65 88.4787 20.87C87.9587 21.07 87.3987 21.15 86.7987 21.11C86.5787 21.11 86.3487 21.05 86.1087 20.93C85.8687 20.81 85.7487 20.63 85.7487 20.39V20.33C85.8487 20.13 85.9887 19.93 86.1687 19.73C86.3487 19.51 86.5787 19.34 86.8587 19.22C87.2387 19.06 87.6887 18.88 88.2087 18.68C88.7287 18.46 89.1687 18.28 89.5287 18.14C90.2287 17.9 90.8587 17.63 91.4187 17.33C91.9787 17.01 92.5987 16.73 93.2787 16.49C93.5987 16.37 93.9087 16.23 94.2087 16.07C94.5087 15.89 94.8087 15.72 95.1087 15.56L95.1987 15.47C95.3587 15.39 95.5287 15.31 95.7087 15.23C95.9087 15.13 96.0787 15.03 96.2187 14.93C96.3787 14.85 96.5787 14.76 96.8187 14.66C97.0787 14.54 97.2987 14.46 97.4787 14.42C97.6387 14.36 97.8187 14.34 98.0187 14.36C98.2187 14.36 98.3987 14.39 98.5587 14.45C98.7387 14.49 98.8887 14.55 99.0087 14.63C99.1287 14.71 99.1987 14.79 99.2187 14.87C99.2987 15.27 99.2187 15.58 98.9787 15.8C98.7587 16.02 98.5087 16.2 98.2287 16.34C97.0687 16.86 96.1187 17.39 95.3787 17.93C94.6587 18.45 94.0387 18.91 93.5187 19.31C92.9787 19.71 92.5187 20.07 92.1387 20.39C91.7787 20.69 91.4787 20.98 91.2387 21.26C90.9987 21.54 90.8187 21.82 90.6987 22.1C90.5987 22.38 90.5387 22.69 90.5187 23.03C90.4987 23.79 90.6387 24.35 90.9387 24.71C91.2587 25.05 91.7587 25.24 92.4387 25.28C92.8187 25.3 93.1887 25.25 93.5487 25.13C93.9087 24.99 94.2287 24.81 94.5087 24.59C94.7887 24.35 95.0287 24.07 95.2287 23.75C95.4287 23.43 95.5687 23.09 95.6487 22.73C95.7687 22.05 95.7787 21.45 95.6787 20.93C95.5787 20.41 95.3787 20.07 95.0787 19.91C95.0187 19.89 94.9987 19.82 95.0187 19.7C95.0587 19.56 95.1087 19.42 95.1687 19.28C95.2487 19.14 95.3387 19.02 95.4387 18.92C95.5387 18.8 95.6287 18.74 95.7087 18.74C96.0487 18.7 96.4187 18.8 96.8187 19.04C97.2187 19.28 97.4987 19.6 97.6587 20C97.7587 20.28 97.8587 20.65 97.9587 21.11C98.0787 21.57 98.1287 22.09 98.1087 22.67C98.0687 23.33 97.9387 23.86 97.7187 24.26C97.5187 24.66 97.2987 24.99 97.0587 25.25C96.5387 25.85 95.8987 26.33 95.1387 26.69C94.3787 27.05 93.4887 27.21 92.4687 27.17C91.8487 27.15 91.2687 27.06 90.7287 26.9C90.1887 26.72 89.7087 26.48 89.2887 26.18C88.8887 25.86 88.5787 25.49 88.3587 25.07C88.1387 24.63 88.0387 24.13 88.0587 23.57C88.0787 22.93 88.1887 22.42 88.3887 22.04C88.6087 21.64 88.8887 21.28 89.2287 20.96ZM88.1487 12.92C88.2287 12.92 88.4187 12.9 88.7187 12.86C89.0187 12.82 89.3487 12.77 89.7087 12.71C90.0687 12.65 90.4187 12.59 90.7587 12.53C91.1187 12.45 91.4087 12.37 91.6287 12.29L93.1587 11.78C93.2387 11.74 93.3487 11.7 93.4887 11.66C93.6287 11.62 93.7787 11.59 93.9387 11.57C94.0987 11.55 94.2487 11.55 94.3887 11.57C94.5487 11.57 94.6687 11.59 94.7487 11.63C94.9087 11.73 95.0587 11.85 95.1987 11.99C95.3587 12.11 95.4087 12.34 95.3487 12.68C95.2887 12.88 95.1187 13.09 94.8387 13.31C94.5587 13.53 94.2187 13.72 93.8187 13.88C93.7187 13.92 93.5787 13.99 93.3987 14.09C93.2187 14.17 93.0487 14.2 92.8887 14.18C92.6087 14.16 92.2487 14.21 91.8087 14.33C91.3887 14.45 91.0087 14.59 90.6687 14.75C90.5687 14.79 90.3987 14.84 90.1587 14.9C89.9387 14.94 89.7087 14.99 89.4687 15.05C89.2287 15.11 89.0087 15.16 88.8087 15.2C88.6087 15.24 88.4787 15.26 88.4187 15.26C88.3187 15.28 88.2087 15.26 88.0887 15.2C87.9687 15.12 87.8487 15.02 87.7287 14.9C87.6287 14.76 87.5387 14.61 87.4587 14.45C87.3787 14.27 87.3287 14.09 87.3087 13.91C87.2687 13.73 87.3187 13.52 87.4587 13.28C87.6187 13.04 87.8487 12.92 88.1487 12.92Z" fill="#1A1A1A"/>
</svg>
