<svg width="283" height="150" viewBox="0 0 283 150" fill="none" xmlns="http://www.w3.org/2000/svg">
<g clip-path="url(#clip0_185_22)">
<path d="M43.8 67.1C43.3333 67.3667 43 67.5667 42.8 67.7C42.6 67.7667 42.1333 68.1667 41.4 68.9L40.1 70L38.4 71.9C38.2667 72.1 38.1 72.3 37.9 72.5C37.7667 72.7 37.6333 72.9 37.5 73.1C36.9 73.5667 36.4667 73.9667 36.2 74.3C35.9333 74.5667 35.4 74.9333 34.6 75.4C34.3333 75.8 34.1333 76.1 34 76.3C33.9333 76.5 33.7 76.7667 33.3 77.1C32.9667 77.4333 32.4333 77.9333 31.7 78.6C31.0333 79.2 29.9667 80.1333 28.5 81.4L21.9 87.2C21.7 87.6667 21.3333 88.2 20.8 88.8C20.2667 89.3333 19.6667 89.8 19 90.2C18.4 90.6 17.7667 90.9 17.1 91.1C16.4333 91.2333 15.8 91.1667 15.2 90.9C14.6 90.6333 14.2333 90.3667 14.1 90.1C13.9667 89.7667 13.8667 89.3333 13.8 88.8C13.9333 88.4 14.2333 87.8 14.7 87C15.1667 86.1333 15.6333 85.5333 16.1 85.2L17.1 84.2L18.5 83C18.7 82.8667 18.8333 82.8 18.9 82.8C18.9667 82.7333 19.0667 82.5667 19.2 82.3L20.5 80.7C20.9667 80.2333 21.2667 79.9333 21.4 79.8C21.6 79.6 22.0333 79.2333 22.7 78.7L23.8 77.6C24.2 77.0667 24.5333 76.7333 24.8 76.6C25.0667 76.2667 25.2667 76 25.4 75.8C25.5333 75.5333 25.6667 75.3 25.8 75.1C26 74.8333 26.2333 74.5333 26.5 74.2C26.8333 73.8667 27.3333 73.4333 28 72.9C28.4667 72.3 28.8667 71.8333 29.2 71.5C29.5333 71.1 29.8667 70.7333 30.2 70.4C30.5333 70 30.8667 69.5667 31.2 69.1C31.6 68.6333 32.1 68.0333 32.7 67.3C33.3667 66.4333 33.8667 65.7667 34.2 65.3C34.5333 64.8333 34.8 64.5 35 64.3C35.2 64.1 35.3667 63.9333 35.5 63.8C35.6333 63.6667 35.8 63.5 36 63.3L37.3 61.9C37.4333 61.5667 37.5667 61.3333 37.7 61.2C37.8333 61.0667 38.1667 60.6333 38.7 59.9L40.3 58.2L40.7 57.8L41.6 56.4C41.9333 56.1333 42.1667 55.9 42.3 55.7C42.4333 55.5 42.6 55.2667 42.8 55C43 54.6667 43.2667 54.2667 43.6 53.8C43.9333 53.3333 44.4667 52.7 45.2 51.9C45.7333 51.3 46.1667 50.8333 46.5 50.5C46.8333 50.1 47.1 49.7667 47.3 49.5C47.5667 49.1667 47.8 48.8667 48 48.6C48.2 48.3333 48.4333 47.9333 48.7 47.4C48.9 47.0667 49.0667 46.8333 49.2 46.7C49.3333 46.5 49.2667 46.4667 49 46.6C48.8 46.6667 48.3333 46.9667 47.6 47.5C46.9333 47.9667 45.9333 48.6667 44.6 49.6C43 50.3333 41.7667 50.9 40.9 51.3C40.0333 51.7 39.3333 52.0333 38.8 52.3C38.2667 52.5667 37.8333 52.7667 37.5 52.9C37.2333 53.0333 36.9 53.2333 36.5 53.5C36.0333 53.9667 35.6667 54.3333 35.4 54.6C35.2 54.8667 34.9667 55.1 34.7 55.3C34.4333 55.5 34.1 55.7 33.7 55.9C33.3667 56.1 32.8333 56.3667 32.1 56.7L29.1 57.5C27.9667 58.4333 26.6 59.4333 25 60.5C23.4667 61.5667 21.8667 62.0333 20.2 61.9C19.3333 62.0333 18.5333 61.8 17.8 61.2C16.8667 60.4667 16.4333 59.8333 16.5 59.3C16.6333 58.7 17.0667 57.9 17.8 56.9C18.4667 56.0333 19.2333 55.3333 20.1 54.8L23.6 53.2C24.8 52.6 25.7 52.1333 26.3 51.8C26.9667 51.4 27.5667 51 28.1 50.6C28.7 50.2 29.3333 49.7333 30 49.2C30.7333 48.6 31.7667 47.8333 33.1 46.9C34.8333 46.1667 36.2 45.6333 37.2 45.3C38.2 44.9 39.0333 44.6 39.7 44.4C40.3667 44.1333 40.9667 43.8667 41.5 43.6C42.0333 43.2667 42.7 42.8 43.5 42.2C44.3 41.7333 44.9333 41.3333 45.4 41C45.9333 40.6667 46.3667 40.4 46.7 40.2C47.0333 39.9333 47.3 39.7333 47.5 39.6C47.7667 39.4667 48.0667 39.3333 48.4 39.2C48.7333 38.8667 49 38.6 49.2 38.4C49.4 38.2 49.5667 38.0667 49.7 38C49.8333 37.8667 50 37.7333 50.2 37.6C50.4 37.4667 50.6667 37.2667 51 37L52.6 35.8C53.0667 35.6667 53.7 35.6667 54.5 35.8C55.3 35.9333 56.1 36.1667 56.9 36.5C57.7 36.7667 58.4 37.1 59 37.5C59.6667 37.8333 60.1 38.1 60.3 38.3C60.6333 38.9 60.7667 39.5333 60.7 40.2C60.6333 40.8 60.5333 41.3667 60.4 41.9C60.0667 42.6333 59.8 43.2333 59.6 43.7C59.4667 44.1667 59.3 44.5667 59.1 44.9C58.9 45.2333 58.6333 45.6 58.3 46C58.0333 46.3333 57.6 46.8 57 47.4L53.4 52.9L51.4 55.9L48 60.3C48.2667 60.4333 48.8667 60.5333 49.8 60.6C50.7333 60.6 51.4 60.5333 51.8 60.4C52 60.5333 52.4 60.6333 53 60.7C53.6667 60.7 54.3333 60.7 55 60.7C55.7333 60.7 56.4 60.7 57 60.7C57.6 60.6333 57.9333 60.6 58 60.6H60.2L63.9 60.5C64.5667 60.5 65.0667 60.5 65.4 60.5C65.7333 60.4333 66.1 60.4 66.5 60.4C66.9 60.3333 67.4 60.3333 68 60.4C68.6667 60.4 69.6333 60.4667 70.9 60.6C71.8333 60.4 72.8 60.3667 73.8 60.5C74.8667 60.6333 75.6667 60.8667 76.2 61.2C77.0667 61.2 77.7333 62.0333 78.2 63.7C79.5333 64.8333 80.1667 65.9 80.1 66.9C80.0333 67.9 79 68.7667 77 69.5C75.6667 69.7667 74.6667 69.9 74 69.9C73.3333 69.8333 72.7 69.7333 72.1 69.6C71.5 69.4 70.7667 69.1667 69.9 68.9C69.1 68.6333 67.9 68.4 66.3 68.2C64.7 67.9333 63.4667 67.7667 62.6 67.7C61.7333 67.6333 61 67.6 60.4 67.6C59.8 67.6 59.2333 67.6 58.7 67.6C58.1667 67.6 57.4667 67.6 56.6 67.6C55.9333 67.6 55.2333 67.6 54.5 67.6C53.8333 67.5333 53.3333 67.5 53 67.5C52.4667 67.5667 51.8333 67.5333 51.1 67.4C50.3667 67.2667 49.7 67.2 49.1 67.2C48.0333 67.1333 47.2 67.0667 46.6 67C46 66.9333 45.5333 66.9 45.2 66.9C44.8667 66.9 44.6 66.9333 44.4 67C44.2667 67.0667 44.1 67.1333 43.9 67.2L43.8 67.1ZM54.2 79.4C54.2 80 54.1 80.7 53.9 81.5C53.7 82.3 53.4667 83.1333 53.2 84C52.9333 84.8 52.6667 85.6333 52.4 86.5C52.1333 87.3667 51.9667 88.1333 51.9 88.8L51.4 90.2C51.6667 90.1333 51.9667 90.0667 52.3 90C52.6333 89.8667 53.0667 89.7333 53.6 89.6C54.5333 89.1333 55.2667 88.7667 55.8 88.5C56.3333 88.1667 56.7333 87.9 57 87.7C57.2667 87.5 57.4333 87.3667 57.5 87.3C57.6333 87.1667 57.7667 87.0333 57.9 86.9C58.3 86.5667 58.6 86.4333 58.8 86.5C59 86.5667 59.4667 86.5333 60.2 86.4C60.4667 86.4 60.7 86.3333 60.9 86.2C61.1667 86 61.4667 85.7667 61.8 85.5C62.2 85.2333 62.7333 84.9333 63.4 84.6C64.1333 84.2667 65.1667 83.9 66.5 83.5C67.9 82.8333 68.9333 82.2667 69.6 81.8C70.3333 81.3333 70.9 80.9667 71.3 80.7C71.7 80.3667 72 80.0667 72.2 79.8C72.4667 79.5333 72.8333 79.2667 73.3 79C73.6333 78.9333 73.9667 78.8333 74.3 78.7C74.6333 78.5667 75.0333 78.3667 75.5 78.1C75.9667 77.8333 76.5333 77.5 77.2 77.1C77.8667 76.7 78.7667 76.2 79.9 75.6C81.1 75 82 74.5667 82.6 74.3C83.2 74.0333 83.6667 73.8667 84 73.8C84.3333 73.7333 84.5667 73.7333 84.7 73.8C84.8333 73.8 85 73.7667 85.2 73.7C85.2667 73.7 85.5 73.6667 85.9 73.6C86.3 73.5333 87.0667 73.9667 88.2 74.9C88.7333 75.4333 89.1 75.8667 89.3 76.2C89.5 76.5333 89.6 76.8 89.6 77C89.6 77.2 89.5333 77.4 89.4 77.6C89.3333 77.7333 89.2667 77.8333 89.2 77.9V78.3C89.1333 78.4333 89.0667 78.6667 89 79C89 79.3333 88.8667 79.5667 88.6 79.7C88.6667 80.0333 88.2 80.5 87.2 81.1C86.2667 81.7 85.2667 82.2667 84.2 82.8C82.8 83.6 81.6667 84.1667 80.8 84.5C80 84.8333 79.3667 85.0333 78.9 85.1C78.5 85.1667 78.2 85.2 78 85.2C77.8667 85.1333 77.7333 85.2 77.6 85.4C77.2667 85.5333 77 85.6667 76.8 85.8C76.6 85.9333 76.4 86.1 76.2 86.3C76 86.4333 75.7667 86.6333 75.5 86.9C75.2333 87.1 74.8667 87.3667 74.4 87.7C73.4667 88.3667 72.8667 88.7 72.6 88.7C72.3333 88.7 72.2667 88.8333 72.4 89.1C72.2667 89.1 72.1333 89.1333 72 89.2C71.9333 89.2667 71.7333 89.3667 71.4 89.5C71.0667 89.6333 70.5667 89.8667 69.9 90.2C69.2333 90.5333 68.2667 90.9333 67 91.4C65.8667 91.7333 64.8333 92.0667 63.9 92.4C62.9667 92.7333 62.2333 93.0667 61.7 93.4C60.5 93.8667 59.3 94.5 58.1 95.3C56.9 96.0333 55.6333 96.7667 54.3 97.5C53.5667 97.7667 52.8333 98.1333 52.1 98.6C51.4333 99.0667 50.5667 99.6333 49.5 100.3C48.3667 100.833 47.4667 101.167 46.8 101.3C46.2 101.433 45.7333 101.5 45.4 101.5C45.0667 101.5 44.8 101.467 44.6 101.4C44.4667 101.333 44.3333 101.4 44.2 101.6C43.7333 101.733 43.3333 101.867 43 102C42.7333 102.133 42.3333 102.333 41.8 102.6C41.2667 102.867 40.5333 103.2 39.6 103.6C38.7333 104 37.5 104.5 35.9 105.1C34.3667 106.167 32.9 107 31.5 107.6C30.1 108.133 29.2667 108.367 29 108.3C27.8 108.9 26.6333 109.433 25.5 109.9C24.4333 110.367 23.3333 110.767 22.2 111.1L20.9 111.5C20.5667 111.433 20.3 111.433 20.1 111.5C19.9667 111.567 19.7667 111.667 19.5 111.8C19.3 112 19 112.233 18.6 112.5C18.2 112.767 17.6 113.067 16.8 113.4C16.2667 113.667 15.7333 113.9 15.2 114.1C14.7333 114.3 14.2667 114.567 13.8 114.9C13.2667 115.5 12.7 115.867 12.1 116C11.5 116.2 10.8333 116.333 10.1 116.4C9.16667 116.667 8.46667 116.867 8 117C7.6 117.2 7.26667 117.367 7 117.5C6.73333 117.7 6.5 117.833 6.3 117.9C6.16667 118.033 5.96667 118.133 5.7 118.2C5.16667 118.267 4.8 118.267 4.6 118.2C4.4 118.2 3.96667 118.233 3.3 118.3C2.96667 118.3 2.7 118.267 2.5 118.2C2.3 118.2 2.06667 118.1 1.8 117.9C1.6 117.967 1.26667 117.967 0.8 117.9C0.333333 117.9 -0.133333 117.8 -0.6 117.6C-1.06667 117.4 -1.46667 117.133 -1.8 116.8C-2.13333 116.533 -2.26667 116.2 -2.2 115.8L-1.7 115.1C-1.63333 114.9 -1.53333 114.733 -1.4 114.6C-1.33333 114.467 -1.16667 114.3 -0.9 114.1C-0.7 113.9 -0.333333 113.667 0.2 113.4C0.733333 113.133 1.5 112.8 2.5 112.4C3.23333 111.533 3.83333 110.9 4.3 110.5C4.76667 110.167 5.3 109.867 5.9 109.6C6.56667 109.333 7.43333 109.033 8.5 108.7C9.63333 108.433 11.1667 107.9 13.1 107.1C14.4333 106.767 15.6 106.333 16.6 105.8C17.6 105.267 18.2667 104.867 18.6 104.6L26.2 101.4C27.8667 100.8 29.1667 100.3 30.1 99.9C31.1 99.4333 31.8667 99.0333 32.4 98.7C33 98.3667 33.4333 98.0667 33.7 97.8C34.0333 97.4667 34.3667 97.1333 34.7 96.8C35.6333 96.2 36.2667 95.9 36.6 95.9C37 95.9 37.3667 95.7333 37.7 95.4C37.9 95.4 38.0667 95.3667 38.2 95.3C38.4 95.1667 38.6 95.0667 38.8 95C39 94.8667 39.2667 94.7333 39.6 94.6C40 94.4 40.5667 94.2 41.3 94L41.2 93.9C41.4667 93.5667 41.6667 93.2667 41.8 93C41.9333 92.7333 42.0333 92.4 42.1 92C42.2333 91.5333 42.3667 90.9667 42.5 90.3C42.7 89.6333 42.9333 88.7 43.2 87.5C43.2 85.4333 43.3 84 43.5 83.2C43.5 82.2667 43.4667 81.5 43.4 80.9C43.4 80.2333 43.3667 79.6 43.3 79C43.1667 77.8 43.0333 77.0667 42.9 76.8C42.8333 76.5333 42.8 76.2333 42.8 75.9C42.6667 75.6333 42.5667 75.4667 42.5 75.4C42.5 75.3333 42.5333 75.2333 42.6 75.1L42.8 74.7C42.8667 73.9667 43.2667 73.2667 44 72.6C44.8 71.9333 45.5333 71.5333 46.2 71.4C47.3333 71.4 48.3333 71.7 49.2 72.3C50.0667 72.9 50.8 73.6 51.4 74.4C52.0667 75.2 52.5667 76.0667 52.9 77C53.3 77.9333 53.5667 78.7333 53.7 79.4H54.2ZM160.243 118.5C159.976 118.5 159.643 118.333 159.243 118C158.91 117.667 158.576 117.233 158.243 116.7C157.976 116.233 157.743 115.667 157.543 115C157.343 114.4 157.31 113.8 157.443 113.2C157.51 112.6 157.71 112 158.043 111.4C158.376 110.8 158.71 110.1 159.043 109.3C159.443 108.5 159.81 107.6 160.143 106.6C160.476 105.6 160.676 104.433 160.743 103.1C160.81 101.833 161.076 100.633 161.543 99.5C162.01 98.3667 162.343 97.1333 162.543 95.8C162.876 93.5333 163.21 91.4667 163.543 89.6C163.876 87.7333 164.11 85.6 164.243 83.2L164.943 79.1L165.343 78V76.5L165.243 76.4C165.243 76.0667 165.176 75.7 165.043 75.3L165.443 74.4L165.543 72L165.643 71.1V69.6L165.743 69.1C165.21 69.6333 164.61 70.4667 163.943 71.6C163.343 72.7333 162.91 73.5333 162.643 74L162.243 74.5C162.043 74.6333 161.776 74.9333 161.443 75.4C161.176 75.8 160.876 76.2333 160.543 76.7C160.276 77.1667 160.01 77.5667 159.743 77.9C159.476 78.2333 159.276 78.4 159.143 78.4C158.943 78.6 158.81 78.8667 158.743 79.2C158.676 79.4667 158.576 79.7667 158.443 80.1C158.176 80.6333 157.71 81.3333 157.043 82.2C156.376 83.0667 155.876 83.8333 155.543 84.5L155.243 84.7V84.8C154.11 86.8 152.41 87.7667 150.143 87.7C149.876 87.7 149.576 87.5667 149.243 87.3C148.976 86.9667 148.71 86.5667 148.443 86.1C148.243 85.5667 148.076 85 147.943 84.4C147.876 83.7333 147.91 83.1 148.043 82.5C148.176 81.3667 148.343 80 148.543 78.4C148.81 76.7333 149.11 74.7333 149.443 72.4L149.543 71.7V68.8C149.676 67.4 149.776 65.9333 149.843 64.4C149.976 62.8667 150.043 61.3 150.043 59.7C150.11 58.1 150.076 56.5333 149.943 55C149.876 53.4667 149.676 52.0333 149.343 50.7L148.543 47.5L147.743 46.5C147.61 46.3 147.476 46.0667 147.343 45.8C147.076 45.2667 146.876 44.9 146.743 44.7L146.043 43.7L145.843 43.5C145.443 42.9 144.943 42.2 144.343 41.4C143.81 40.5333 143.576 39.7333 143.643 39C143.71 37.8667 144.01 36.9667 144.543 36.3C145.143 35.5667 145.91 35.2333 146.843 35.3C147.843 35.3667 148.876 35.6333 149.943 36.1C151.01 36.5667 151.71 37.3 152.043 38.3C152.376 38.7667 152.776 39.3 153.243 39.9C153.71 40.4333 154.11 41 154.443 41.6L155.043 42.7L155.243 43.7C155.976 44.4333 156.343 45.1333 156.343 45.8C156.41 46.4 156.61 47.2 156.943 48.2C157.343 49.1333 157.543 50 157.543 50.8L157.343 57.6L156.743 70.7C156.876 70.5667 156.976 70.4667 157.043 70.4C157.176 70.2667 157.31 70.1333 157.443 70L158.543 69L161.443 65.2C161.643 65 161.876 64.7 162.143 64.3C162.476 63.9 162.776 63.4667 163.043 63C163.376 62.4667 163.676 62 163.943 61.6C164.276 61.1333 164.543 60.7667 164.743 60.5L165.043 60.1L166.743 58.4L167.343 57.5C167.276 56.7667 167.176 56.0333 167.043 55.3C166.976 54.5667 166.943 53.8333 166.943 53.1V52.4L167.043 45.3L166.043 42.1L165.243 38.1C165.11 37.9 164.976 37.6667 164.843 37.4C164.576 36.8667 164.376 36.5 164.243 36.3L163.543 35.3L163.343 35.1C162.943 34.5 162.443 33.8 161.843 33C161.31 32.1333 161.076 31.3333 161.143 30.6C161.21 29.4667 161.51 28.5667 162.043 27.9C162.643 27.1667 163.41 26.8333 164.343 26.9C165.343 26.9667 166.376 27.2667 167.443 27.8C168.51 28.2667 169.21 28.9667 169.543 29.9C169.876 30.3667 170.276 30.9 170.743 31.5C171.21 32.0333 171.61 32.6 171.943 33.2L172.543 34.3L172.743 35.3C173.143 35.7 173.443 36.2333 173.643 36.9C173.843 37.5667 174.01 38.2667 174.143 39C174.276 39.6667 174.376 40.3667 174.443 41.1C174.576 41.7667 174.743 42.3333 174.943 42.8C175.343 43.7333 175.543 44.6 175.543 45.4L175.343 52.2L174.943 60.3L174.743 64.2C174.743 65.0667 174.676 65.9333 174.543 66.8C174.41 67.6667 174.243 68.5333 174.043 69.4L173.543 71.1C173.543 71.6333 173.51 72.1 173.443 72.5C173.376 72.9 173.343 73.3667 173.343 73.9C173.343 74.3667 173.376 74.7667 173.443 75.1C173.576 75.3667 173.51 75.6667 173.243 76L171.543 86.8C171.41 87.7333 171.21 89.0333 170.943 90.7C170.676 92.3667 170.376 94.1 170.043 95.9C169.71 97.7 169.343 99.4 168.943 101C168.543 102.6 168.143 103.8 167.743 104.6C167.543 105 167.31 105.667 167.043 106.6C166.843 107.467 166.643 108.367 166.443 109.3C166.243 110.3 166.043 111.167 165.843 111.9C165.643 112.633 165.476 113.067 165.343 113.2V113.9L164.643 115.7V115.6C164.11 116.6 163.51 117.333 162.843 117.8C162.243 118.333 161.376 118.567 160.243 118.5ZM97.143 106.2C96.343 106.2 95.6763 106.1 95.143 105.9C94.6763 105.633 94.443 105 94.443 104C94.443 103.2 94.6096 102.533 94.943 102C95.343 101.4 95.7763 100.867 96.243 100.4C96.7763 99.8667 97.3096 99.3667 97.843 98.9C98.3763 98.4333 98.8096 97.9 99.143 97.3L101.443 94.8L105.343 90L107.343 87.3C108.41 86.3667 109.21 85.4 109.743 84.4C110.276 83.4 111.01 82.4667 111.943 81.6L112.643 80.7C112.843 80.1667 113.176 79.6333 113.643 79.1C114.11 78.5 114.51 77.9333 114.843 77.4L117.943 72.8C118.943 71.3333 120.01 69.7333 121.143 68C122.276 66.2 123.343 64.4333 124.343 62.7C125.01 61.5 125.643 60.4 126.243 59.4C126.843 58.4 127.343 57.3333 127.743 56.2C127.476 56.2 127.143 56.3333 126.743 56.6C125.743 57.4 124.81 57.9667 123.943 58.3C123.01 58.5 122.11 58.8 121.243 59.2C120.376 59.6 119.51 60.0333 118.643 60.5C117.843 60.9 117.01 61.3 116.143 61.7C115.276 62.0333 114.376 62.2333 113.443 62.3C112.576 63.1667 111.676 63.9667 110.743 64.7C109.81 65.3667 108.743 65.8 107.543 66C106.81 66.2 106.01 66.3333 105.143 66.4C104.343 66.4667 103.576 66.5 102.843 66.5C102.243 66.4333 101.543 66.3667 100.743 66.3C99.943 66.2333 99.3096 65.9667 98.843 65.5C98.3096 65.1 97.843 64.8 97.443 64.6C97.1096 64.4 96.943 63.9333 96.943 63.2C96.943 62.4 97.1096 61.8333 97.443 61.5C97.7763 61.1 98.1763 60.8333 98.643 60.7C99.1763 60.5 99.7096 60.3667 100.243 60.3C100.776 60.1667 101.31 59.9333 101.843 59.6L105.143 59.2C106.876 58.6667 108.243 58.1333 109.243 57.6C110.31 57 111.543 56.3333 112.943 55.6C114.81 54.7333 116.643 53.9667 118.443 53.3C120.31 52.5667 122.276 51.6 124.343 50.4C125.676 49.6667 126.976 49.1333 128.243 48.8C129.576 48.4 130.81 47.7333 131.943 46.8C132.81 46.3333 133.576 45.9667 134.243 45.7C134.91 45.4333 135.676 45.1333 136.543 44.8C136.81 44.7333 137.176 44.7667 137.643 44.9C138.176 45.0333 138.676 45.2667 139.143 45.6C139.61 45.8667 140.01 46.2 140.343 46.6C140.743 46.9333 140.943 47.2667 140.943 47.6C140.943 47.9333 140.843 48.2333 140.643 48.5C140.443 48.7667 140.343 49.0667 140.343 49.4C140.01 51.0667 139.443 52.7 138.643 54.3C137.843 55.8333 137.043 57.2667 136.243 58.6C136.31 58.8667 136.21 59.3 135.943 59.9C135.743 60.4333 135.443 61.0333 135.043 61.7C134.71 62.3 134.343 62.8667 133.943 63.4C133.61 63.9333 133.376 64.2667 133.243 64.4C133.176 64.6667 132.91 65.1333 132.443 65.8C132.043 66.4 131.543 67.1333 130.943 68C130.343 68.8667 129.676 69.8 128.943 70.8C128.276 71.7333 127.643 72.6667 127.043 73.6C127.776 73.8 128.743 74.0667 129.943 74.4C131.21 74.7333 132.543 75.0667 133.943 75.4C135.343 75.7333 136.776 76.1 138.243 76.5C139.776 76.9 141.143 77.2333 142.343 77.5C143.476 77.7 144.276 78.1333 144.743 78.8C145.276 79.4667 145.543 80.0667 145.543 80.6C145.476 81.3333 145.11 82.0333 144.443 82.7C143.843 83.3667 143.143 83.8667 142.343 84.2C142.01 84.3333 141.543 84.5 140.943 84.7C140.343 84.8333 139.876 84.9 139.543 84.9C138.276 84.8333 136.943 84.6333 135.543 84.3C134.143 83.9 132.776 83.4667 131.443 83C130.11 82.4667 128.876 82 127.743 81.6C126.61 81.1333 125.643 80.8 124.843 80.6C124.51 80.4667 124.143 80.3667 123.743 80.3C123.343 80.2333 122.91 80.2333 122.443 80.3L119.943 83.6C119.476 84.2667 119.11 84.7 118.843 84.9C118.643 85.0333 118.31 85.2667 117.843 85.6V85.7C117.31 86.4333 116.81 87.1667 116.343 87.9C115.876 88.6333 115.176 89.5667 114.243 90.7C113.243 91.8333 112.276 92.9667 111.343 94.1C110.41 95.2333 109.376 96.3333 108.243 97.4L106.443 99.1C106.11 99.6333 105.543 100.3 104.743 101.1C103.943 101.9 103.076 102.7 102.143 103.5C101.21 104.233 100.276 104.867 99.343 105.4C98.4763 105.933 97.743 106.2 97.143 106.2ZM224.886 103.8C225.619 100.267 227.186 96.9333 229.586 93.8C231.986 90.6 235.153 87.7667 239.086 85.3C239.486 85.1 240.053 84.8 240.786 84.4C241.519 83.9333 242.286 83.4667 243.086 83C243.886 82.5333 244.653 82.1 245.386 81.7C246.186 81.2333 246.819 80.9 247.286 80.7C248.086 80.1667 248.819 79.6667 249.486 79.2C250.153 78.6667 250.853 78.1 251.586 77.5C253.719 75.5667 255.253 73.7667 256.186 72.1C257.119 70.3667 257.753 68.7667 258.086 67.3C258.219 66.3667 258.319 65.4 258.386 64.4C258.453 63.3333 258.519 62.3 258.586 61.3C258.253 61.4333 257.886 61.5667 257.486 61.7C257.153 61.8333 256.819 62 256.486 62.2C255.686 62.6667 254.886 63.0333 254.086 63.3C253.353 63.5667 252.586 63.8667 251.786 64.2C250.919 64.4667 250.053 64.7333 249.186 65C248.386 65.2667 247.653 65.6667 246.986 66.2L246.386 66.7L241.686 68.3C241.286 68.1 240.853 67.8667 240.386 67.6C239.919 67.2667 239.453 66.9 238.986 66.5C238.586 66.1 238.219 65.7 237.886 65.3C237.619 64.8333 237.486 64.3667 237.486 63.9C237.553 63.6333 237.619 63.4667 237.686 63.4V63.2C237.686 63.1333 237.719 63.1 237.786 63.1V62.7C238.053 61.9 238.319 61.3333 238.586 61C238.853 60.6667 239.153 60.3333 239.486 60L240.286 59.1L240.986 58.4L242.286 57L245.986 53.2L247.786 51.1C247.986 50.8333 248.286 50.4333 248.686 49.9C249.153 49.3 249.586 48.7667 249.986 48.3C249.253 48.6333 248.586 48.9333 247.986 49.2C247.386 49.4 246.553 49.6 245.486 49.8C244.553 50.0667 243.686 50.3333 242.886 50.6C242.153 50.8667 241.319 50.9667 240.386 50.9C239.319 50.9 238.419 50.6333 237.686 50.1C237.019 49.5 236.719 48.6 236.786 47.4C236.853 46.4667 237.119 45.7667 237.586 45.3C238.053 44.8333 238.619 44.5333 239.286 44.4C239.953 44.2667 240.653 44.2 241.386 44.2C242.186 44.2 242.919 44.2 243.586 44.2C244.319 44.1333 245.053 44 245.786 43.8C246.519 43.6 247.086 43.4 247.486 43.2C248.353 42.8 249.019 42.4333 249.486 42.1C249.953 41.7667 250.386 41.4667 250.786 41.2C251.186 40.8667 251.653 40.6 252.186 40.4C252.719 40.1333 253.486 39.9 254.486 39.7C255.019 39.6333 255.519 39.7333 255.986 40C256.453 40.2667 256.819 40.6333 257.086 41.1C257.419 41.5 257.653 41.9667 257.786 42.5C257.919 42.9667 257.953 43.4 257.886 43.8C257.753 44.2 257.486 44.6333 257.086 45.1C256.686 45.5667 256.286 45.9667 255.886 46.3C254.953 47.4333 253.819 48.8333 252.486 50.5C251.153 52.1 249.886 53.7 248.686 55.3C247.486 56.8333 246.486 58.1667 245.686 59.3C244.953 60.3667 244.686 60.9333 244.886 61L246.786 60.3C247.653 59.9667 248.686 59.5333 249.886 59C251.086 58.4667 252.253 57.9333 253.386 57.4C254.119 57 255.019 56.3667 256.086 55.5C257.219 54.5667 258.353 53.6 259.486 52.6C259.353 51.6667 259.186 50.7 258.986 49.7C258.786 48.7 258.686 47.8333 258.686 47.1L258.786 46.4L259.086 45L259.186 43.5L258.786 42.4V42.1L258.686 42C258.753 41.4667 258.853 41 258.986 40.6C259.119 40.1333 259.186 39.6667 259.186 39.2L258.686 36L257.986 34.9L256.886 33.1L256.286 32.1L256.086 31.9C255.553 31.3667 255.019 30.7 254.486 29.9C254.019 29.0333 253.786 28.2 253.786 27.4C253.853 26.2667 254.286 25.4 255.086 24.8C255.953 24.1333 256.853 23.8 257.786 23.8C258.786 23.8667 259.819 24.1333 260.886 24.6C261.953 25.0667 262.653 25.7667 262.986 26.7C263.253 27.1667 263.619 27.7 264.086 28.3C264.553 28.9 264.986 29.4667 265.386 30L265.886 31.1L266.186 32.1C266.919 32.9667 267.353 33.7 267.486 34.3C267.686 34.9 267.953 35.6667 268.286 36.6C268.753 37.6667 268.953 38.5667 268.886 39.3L268.786 42.1C268.786 42.7667 268.786 43.4333 268.786 44.1C268.786 44.7667 268.753 45.4333 268.686 46.1L267.686 55.1C267.553 56.2333 267.419 57.0333 267.286 57.5C267.219 57.9667 267.153 58.3667 267.086 58.7C267.019 59.0333 266.919 59.4333 266.786 59.9C266.653 60.3 266.486 61 266.286 62C265.953 62.8667 265.619 63.9667 265.286 65.3C265.019 66.5667 264.719 67.3333 264.386 67.6L264.586 68.5C264.253 69.7667 263.786 71.0667 263.186 72.4C262.653 73.7333 261.819 75.2 260.686 76.8C259.219 78.8 257.819 80.1667 256.486 80.9C255.219 81.5667 254.419 82.0333 254.086 82.3C253.153 82.9 252.286 83.5333 251.486 84.2C250.753 84.8 249.986 85.4667 249.186 86.2C248.386 86.8667 247.519 87.6 246.586 88.4C245.653 89.1333 244.586 89.9333 243.386 90.8C242.319 91.5333 241.419 92.3 240.686 93.1C240.019 93.8333 239.186 94.5333 238.186 95.2L236.886 97.4C235.619 99.4667 234.919 101.7 234.786 104.1C234.786 104.5 234.819 105 234.886 105.6C234.953 106.133 235.053 106.733 235.186 107.4C235.386 108 235.586 108.567 235.786 109.1C236.053 109.7 236.386 110.133 236.786 110.4C237.319 110.733 237.986 110.967 238.786 111.1C239.586 111.3 240.253 111.4 240.786 111.4C241.986 111.467 243.019 111.367 243.886 111.1C244.753 110.9 245.619 110.533 246.486 110C247.419 109.467 248.386 108.8 249.386 108C250.386 107.267 251.286 106.467 252.086 105.6C252.886 104.733 253.553 103.833 254.086 102.9C254.686 101.967 254.986 101.033 254.986 100.1C254.986 99.5 254.819 98.9667 254.486 98.5C254.153 98.0333 253.786 97.5667 253.386 97.1C252.986 96.5667 252.619 96.0333 252.286 95.5C252.019 94.9 251.886 94.2 251.886 93.4C251.953 92.0667 252.553 90.9667 253.686 90.1C254.886 89.2333 256.153 88.8667 257.486 89C258.886 89.1333 260.119 89.7 261.186 90.7C262.319 91.7 263.153 92.9667 263.686 94.5C264.153 95.8333 264.353 97.2333 264.286 98.7C264.286 100.1 264.053 101.5 263.586 102.9C263.186 104.3 262.619 105.633 261.886 106.9C261.153 108.1 260.286 109.133 259.286 110L256.886 112.4C256.219 113.067 255.519 113.7 254.786 114.3C254.119 114.9 253.553 115.367 253.086 115.7C252.486 116.167 251.653 116.6 250.586 117C249.586 117.4 248.486 117.733 247.286 118C246.153 118.333 244.986 118.567 243.786 118.7C242.586 118.9 241.453 119 240.386 119C238.786 118.933 237.553 118.633 236.686 118.1C235.819 117.567 234.953 117.133 234.086 116.8C230.553 115.533 228.086 113.9 226.686 111.9C225.353 109.9 224.753 107.2 224.886 103.8ZM204.386 61.5C205.719 60.1667 206.919 59.1 207.986 58.3L206.586 59C205.186 59.7333 203.619 60.4667 201.886 61.2C200.153 61.8667 198.286 62.1333 196.286 62C195.553 62 194.786 61.8 193.986 61.4C193.186 61 192.786 60.4 192.786 59.6V59.4C193.119 58.7333 193.586 58.0667 194.186 57.4C194.786 56.6667 195.553 56.1 196.486 55.7C197.753 55.1667 199.253 54.5333 200.986 53.8C202.719 53.0667 204.186 52.5 205.386 52.1C207.719 51.3 209.819 50.4 211.686 49.4C213.553 48.3333 215.619 47.4 217.886 46.6C218.953 46.1333 219.986 45.6333 220.986 45.1C221.986 44.5667 222.986 44.0333 223.986 43.5L224.286 43.2C224.819 42.9333 225.386 42.6667 225.986 42.4C226.653 42.0667 227.219 41.7333 227.686 41.4C228.219 41.0667 228.886 40.7333 229.686 40.4C230.553 40.0667 231.286 39.8 231.886 39.6C232.419 39.4 233.019 39.3333 233.686 39.4C234.353 39.4 234.953 39.5 235.486 39.7C236.086 39.8333 236.586 40.0333 236.986 40.3C237.386 40.5667 237.619 40.8333 237.686 41.1C237.953 42.4333 237.686 43.5 236.886 44.3C236.153 45.0333 235.319 45.6 234.386 46C230.519 47.7333 227.353 49.5 224.886 51.3C222.486 53.1 220.419 54.6667 218.686 56C216.886 57.3333 215.353 58.5 214.086 59.5C212.886 60.5 211.886 61.5 211.086 62.5C210.286 63.4333 209.686 64.3667 209.286 65.3C208.953 66.2333 208.753 67.2667 208.686 68.4C208.619 70.9333 209.086 72.8 210.086 74C211.153 75.1333 212.819 75.7667 215.086 75.9C216.353 75.9667 217.586 75.8 218.786 75.4C219.986 74.9333 221.053 74.3 221.986 73.5C222.919 72.7 223.719 71.7667 224.386 70.7C225.053 69.6333 225.519 68.5 225.786 67.3C226.186 65.1 226.219 63.1333 225.886 61.4C225.553 59.6 224.886 58.4667 223.886 58C223.686 57.8667 223.619 57.6 223.686 57.2C223.819 56.7333 223.986 56.3 224.186 55.9C224.453 55.4333 224.753 55 225.086 54.6C225.419 54.2 225.719 54 225.986 54C227.119 53.8667 228.353 54.2 229.686 55C231.019 55.8 231.953 56.9 232.486 58.3C232.819 59.2333 233.153 60.4667 233.486 62C233.886 63.4667 234.053 65.1667 233.986 67.1C233.853 69.3 233.419 71.1 232.686 72.5C232.019 73.8333 231.286 74.9333 230.486 75.8C228.753 77.8 226.619 79.4 224.086 80.6C221.553 81.8 218.586 82.3333 215.186 82.2C213.119 82.1333 211.186 81.8333 209.386 81.3C207.586 80.7 205.986 79.9 204.586 78.9C203.253 77.8333 202.219 76.6 201.486 75.2C200.753 73.7333 200.419 72.0667 200.486 70.2C200.553 68.0667 200.919 66.3667 201.586 65.1C202.319 63.7667 203.253 62.5667 204.386 61.5ZM200.786 34.7C201.053 34.7 201.686 34.6333 202.686 34.5C203.686 34.3667 204.786 34.2 205.986 34C207.186 33.8 208.353 33.6 209.486 33.4C210.686 33.1333 211.653 32.8667 212.386 32.6L217.486 30.8C217.753 30.6667 218.119 30.5667 218.586 30.5C219.053 30.3667 219.553 30.2667 220.086 30.2C220.619 30.1333 221.119 30.1333 221.586 30.2C222.119 30.2 222.519 30.2667 222.786 30.4C223.319 30.7333 223.819 31.1333 224.286 31.6C224.819 32 224.986 32.7667 224.786 33.9C224.586 34.5667 224.019 35.2667 223.086 36C222.153 36.7333 221.019 37.3667 219.686 37.9C219.353 38.0333 218.886 38.2333 218.286 38.5C217.686 38.7667 217.119 38.9 216.586 38.9C215.653 38.7667 214.453 38.9333 212.986 39.4C211.586 39.8 210.319 40.2333 209.186 40.7C208.853 40.8333 208.286 41 207.486 41.2C206.753 41.4 205.986 41.6 205.186 41.8C204.386 42 203.653 42.1667 202.986 42.3C202.319 42.4333 201.886 42.5 201.686 42.5C201.086 42.5667 200.353 42.1333 199.486 41.2C198.619 40.2667 198.119 39.2 197.986 38C197.853 37.4 198.019 36.7 198.486 35.9C199.019 35.1 199.786 34.7 200.786 34.7Z" fill="#1A1A1A"/>
</g>
<defs>
<clipPath id="clip0_185_22">
<rect width="283" height="150" fill="white"/>
</clipPath>
</defs>
</svg>
